<?xml version="1.0" encoding="utf-8" standalone="no"?>
<!DOCTYPE svg PUBLIC "-//W3C//DTD SVG 1.1//EN"
  "http://www.w3.org/Graphics/SVG/1.1/DTD/svg11.dtd">
<svg height="171.36pt" version="1.1" viewBox="0 0 563.04 171.36" width="563.04pt" xmlns="http://www.w3.org/2000/svg" xmlns:xlink="http://www.w3.org/1999/xlink">
 <metadata>
  <rdf:RDF xmlns:cc="http://creativecommons.org/ns#" xmlns:dc="http://purl.org/dc/elements/1.1/" xmlns:rdf="http://www.w3.org/1999/02/22-rdf-syntax-ns#">
   <cc:Work>
    <dc:type rdf:resource="http://purl.org/dc/dcmitype/StillImage"/>
    <dc:date>2022-06-05T12:22:08.103216</dc:date>
    <dc:format>image/svg+xml</dc:format>
    <dc:creator>
     <cc:Agent>
      <dc:title>Matplotlib v3.4.0, https://matplotlib.org/</dc:title>
     </cc:Agent>
    </dc:creator>
   </cc:Work>
  </rdf:RDF>
 </metadata>
 <defs>
  <style type="text/css">*{stroke-linecap:butt;stroke-linejoin:round;}</style>
 </defs>
 <g id="figure_1">
  <g id="patch_1">
   <path d="M 0 171.36 
L 563.04 171.36 
L 563.04 0 
L 0 0 
z
" style="fill:#ffffff;"/>
  </g>
  <g id="axes_1">
   <g id="line2d_1">
    <path clip-path="url(#p89a08e24e6)" d="M 81.136852 110.177591 
L 113.047798 110.177591 
L 81.136852 110.177591 
" style="fill:none;stroke:#000000;stroke-width:1.5;"/>
   </g>
   <g id="line2d_2">
    <defs>
     <path d="M 0 3 
C 0.795609 3 1.55874 2.683901 2.12132 2.12132 
C 2.683901 1.55874 3 0.795609 3 0 
C 3 -0.795609 2.683901 -1.55874 2.12132 -2.12132 
C 1.55874 -2.683901 0.795609 -3 0 -3 
C -0.795609 -3 -1.55874 -2.683901 -2.12132 -2.12132 
C -2.683901 -1.55874 -3 -0.795609 -3 0 
C -3 0.795609 -2.683901 1.55874 -2.12132 2.12132 
C -1.55874 2.683901 -0.795609 3 0 3 
z
" id="ma55a35695d" style="stroke:#000000;"/>
    </defs>
    <g clip-path="url(#p89a08e24e6)">
     <use style="stroke:#000000;" x="81.136852" xlink:href="#ma55a35695d" y="110.177591"/>
    </g>
   </g>
   <g id="line2d_3">
    <g clip-path="url(#p89a08e24e6)">
     <use style="stroke:#000000;" x="113.047798" xlink:href="#ma55a35695d" y="110.177591"/>
    </g>
   </g>
   <g id="line2d_4">
    <path clip-path="url(#p89a08e24e6)" d="M 160.914216 110.177591 
L 160.914216 78.132 
L 160.914216 110.177591 
" style="fill:none;stroke:#000000;stroke-width:1.5;"/>
   </g>
   <g id="line2d_5">
    <g clip-path="url(#p89a08e24e6)">
     <use style="stroke:#000000;" x="160.914216" xlink:href="#ma55a35695d" y="110.177591"/>
    </g>
   </g>
   <g id="line2d_6">
    <g clip-path="url(#p89a08e24e6)">
     <use style="stroke:#000000;" x="160.914216" xlink:href="#ma55a35695d" y="78.132"/>
    </g>
   </g>
   <g id="line2d_7">
    <path clip-path="url(#p89a08e24e6)" d="M 192.825162 110.177591 
L 224.736108 78.132 
L 192.825162 110.177591 
" style="fill:none;stroke:#000000;stroke-width:1.5;"/>
   </g>
   <g id="line2d_8">
    <g clip-path="url(#p89a08e24e6)">
     <use style="stroke:#000000;" x="192.825162" xlink:href="#ma55a35695d" y="110.177591"/>
    </g>
   </g>
   <g id="line2d_9">
    <g clip-path="url(#p89a08e24e6)">
     <use style="stroke:#000000;" x="224.736108" xlink:href="#ma55a35695d" y="78.132"/>
    </g>
   </g>
   <g id="line2d_10">
    <path clip-path="url(#p89a08e24e6)" d="M 272.602527 110.177591 
L 304.513473 110.177591 
L 336.424419 78.132 
L 336.424419 46.086409 
L 304.513473 46.086409 
L 272.602527 78.132 
L 272.602527 110.177591 
" style="fill:none;stroke:#000000;stroke-width:1.5;"/>
   </g>
   <g id="line2d_11">
    <g clip-path="url(#p89a08e24e6)">
     <use style="stroke:#000000;" x="272.602527" xlink:href="#ma55a35695d" y="110.177591"/>
    </g>
   </g>
   <g id="line2d_12">
    <g clip-path="url(#p89a08e24e6)">
     <use style="stroke:#000000;" x="304.513473" xlink:href="#ma55a35695d" y="110.177591"/>
    </g>
   </g>
   <g id="line2d_13">
    <g clip-path="url(#p89a08e24e6)">
     <use style="stroke:#000000;" x="336.424419" xlink:href="#ma55a35695d" y="78.132"/>
    </g>
   </g>
   <g id="line2d_14">
    <g clip-path="url(#p89a08e24e6)">
     <use style="stroke:#000000;" x="336.424419" xlink:href="#ma55a35695d" y="46.086409"/>
    </g>
   </g>
   <g id="line2d_15">
    <g clip-path="url(#p89a08e24e6)">
     <use style="stroke:#000000;" x="304.513473" xlink:href="#ma55a35695d" y="46.086409"/>
    </g>
   </g>
   <g id="line2d_16">
    <g clip-path="url(#p89a08e24e6)">
     <use style="stroke:#000000;" x="272.602527" xlink:href="#ma55a35695d" y="78.132"/>
    </g>
   </g>
   <g id="line2d_17">
    <path clip-path="url(#p89a08e24e6)" d="M 384.290838 110.177591 
L 416.201784 110.177591 
L 416.201784 78.132 
L 384.290838 110.177591 
" style="fill:none;stroke:#000000;stroke-width:1.5;"/>
   </g>
   <g id="line2d_18">
    <g clip-path="url(#p89a08e24e6)">
     <use style="stroke:#000000;" x="384.290838" xlink:href="#ma55a35695d" y="110.177591"/>
    </g>
   </g>
   <g id="line2d_19">
    <g clip-path="url(#p89a08e24e6)">
     <use style="stroke:#000000;" x="416.201784" xlink:href="#ma55a35695d" y="110.177591"/>
    </g>
   </g>
   <g id="line2d_20">
    <g clip-path="url(#p89a08e24e6)">
     <use style="stroke:#000000;" x="416.201784" xlink:href="#ma55a35695d" y="78.132"/>
    </g>
   </g>
   <g id="line2d_21">
    <path clip-path="url(#p89a08e24e6)" d="M 464.068202 110.177591 
L 464.068202 78.132 
L 495.979148 78.132 
L 464.068202 110.177591 
" style="fill:none;stroke:#000000;stroke-width:1.5;"/>
   </g>
   <g id="line2d_22">
    <g clip-path="url(#p89a08e24e6)">
     <use style="stroke:#000000;" x="464.068202" xlink:href="#ma55a35695d" y="110.177591"/>
    </g>
   </g>
   <g id="line2d_23">
    <g clip-path="url(#p89a08e24e6)">
     <use style="stroke:#000000;" x="464.068202" xlink:href="#ma55a35695d" y="78.132"/>
    </g>
   </g>
   <g id="line2d_24">
    <g clip-path="url(#p89a08e24e6)">
     <use style="stroke:#000000;" x="495.979148" xlink:href="#ma55a35695d" y="78.132"/>
    </g>
   </g>
   <g id="text_1">
    <!-- $+$ -->
    <g transform="translate(129.003271 94.154796)scale(0.1 -0.1)">
     <defs>
      <path d="M 2944 4013 
L 2944 2272 
L 4684 2272 
L 4684 1741 
L 2944 1741 
L 2944 0 
L 2419 0 
L 2419 1741 
L 678 1741 
L 678 2272 
L 2419 2272 
L 2419 4013 
L 2944 4013 
z
" id="DejaVuSans-2b" transform="scale(0.015625)"/>
     </defs>
     <use transform="translate(0 0.296875)" xlink:href="#DejaVuSans-2b"/>
    </g>
   </g>
   <g id="text_2">
    <!-- $+$ -->
    <g transform="translate(176.869689 94.154796)scale(0.1 -0.1)">
     <use transform="translate(0 0.296875)" xlink:href="#DejaVuSans-2b"/>
    </g>
   </g>
   <g id="text_3">
    <!-- $=$ -->
    <g transform="translate(240.691581 94.154796)scale(0.1 -0.1)">
     <defs>
      <path d="M 678 2906 
L 4684 2906 
L 4684 2381 
L 678 2381 
L 678 2906 
z
M 678 1631 
L 4684 1631 
L 4684 1100 
L 678 1100 
L 678 1631 
z
" id="DejaVuSans-3d" transform="scale(0.015625)"/>
     </defs>
     <use transform="translate(19.482422 0.59375)" xlink:href="#DejaVuSans-3d"/>
    </g>
   </g>
   <g id="text_4">
    <!-- $=$ -->
    <g transform="translate(352.379892 94.154796)scale(0.1 -0.1)">
     <use transform="translate(19.482422 0.59375)" xlink:href="#DejaVuSans-3d"/>
    </g>
   </g>
   <g id="text_5">
    <!-- $+$ -->
    <g transform="translate(432.157257 94.154796)scale(0.1 -0.1)">
     <use transform="translate(0 0.296875)" xlink:href="#DejaVuSans-2b"/>
    </g>
   </g>
   <g id="text_6">
    <!-- $(x \oplus 0) \odot (y \oplus 0) \odot (x \odot y \oplus 0 )$ -->
    <g transform="translate(97.092325 14.040818)scale(0.1 -0.1)">
     <defs>
      <path d="M 1984 4856 
Q 1566 4138 1362 3434 
Q 1159 2731 1159 2009 
Q 1159 1288 1364 580 
Q 1569 -128 1984 -844 
L 1484 -844 
Q 1016 -109 783 600 
Q 550 1309 550 2009 
Q 550 2706 781 3412 
Q 1013 4119 1484 4856 
L 1984 4856 
z
" id="DejaVuSans-28" transform="scale(0.015625)"/>
      <path d="M 3841 3500 
L 2234 1784 
L 3219 0 
L 2559 0 
L 1819 1388 
L 531 0 
L -166 0 
L 1556 1844 
L 641 3500 
L 1300 3500 
L 1972 2234 
L 3144 3500 
L 3841 3500 
z
" id="DejaVuSans-Oblique-78" transform="scale(0.015625)"/>
      <path d="M 3306 3522 
Q 3016 3644 2681 3644 
Q 2347 3644 2056 3522 
Q 1769 3400 1531 3163 
Q 1291 2922 1172 2634 
Q 1053 2347 1053 2006 
Q 1053 1675 1172 1387 
Q 1291 1100 1531 859 
Q 1769 622 2056 500 
Q 2347 378 2681 378 
Q 3016 378 3306 500 
Q 3594 622 3831 859 
Q 4072 1100 4190 1387 
Q 4309 1675 4309 2006 
Q 4309 2347 4190 2634 
Q 4072 2922 3831 3163 
Q 3594 3400 3306 3522 
z
M 1878 3956 
Q 2250 4113 2681 4113 
Q 3113 4113 3484 3956 
Q 3856 3800 4163 3494 
Q 4472 3184 4625 2813 
Q 4778 2444 4778 2006 
Q 4778 1578 4625 1206 
Q 4472 838 4163 528 
Q 3856 222 3484 65 
Q 3113 -91 2681 -91 
Q 2250 -91 1878 65 
Q 1506 222 1200 528 
Q 891 838 738 1206 
Q 584 1578 584 2006 
Q 584 2444 738 2813 
Q 891 3184 1200 3494 
Q 1506 3800 1878 3956 
z
M 2947 3388 
L 2947 2272 
L 4059 2272 
L 4059 1741 
L 2947 1741 
L 2947 625 
L 2416 625 
L 2416 1741 
L 1303 1741 
L 1303 2272 
L 2416 2272 
L 2416 3388 
L 2947 3388 
z
" id="DejaVuSans-2295" transform="scale(0.015625)"/>
      <path d="M 2034 4250 
Q 1547 4250 1301 3770 
Q 1056 3291 1056 2328 
Q 1056 1369 1301 889 
Q 1547 409 2034 409 
Q 2525 409 2770 889 
Q 3016 1369 3016 2328 
Q 3016 3291 2770 3770 
Q 2525 4250 2034 4250 
z
M 2034 4750 
Q 2819 4750 3233 4129 
Q 3647 3509 3647 2328 
Q 3647 1150 3233 529 
Q 2819 -91 2034 -91 
Q 1250 -91 836 529 
Q 422 1150 422 2328 
Q 422 3509 836 4129 
Q 1250 4750 2034 4750 
z
" id="DejaVuSans-30" transform="scale(0.015625)"/>
      <path d="M 513 4856 
L 1013 4856 
Q 1481 4119 1714 3412 
Q 1947 2706 1947 2009 
Q 1947 1309 1714 600 
Q 1481 -109 1013 -844 
L 513 -844 
Q 928 -128 1133 580 
Q 1338 1288 1338 2009 
Q 1338 2731 1133 3434 
Q 928 4138 513 4856 
z
" id="DejaVuSans-29" transform="scale(0.015625)"/>
      <path d="M 2350 2403 
L 3013 2403 
L 3013 1609 
L 2350 1609 
L 2350 2403 
z
M 3306 3522 
Q 3016 3644 2681 3644 
Q 2347 3644 2056 3522 
Q 1769 3400 1531 3163 
Q 1291 2922 1172 2634 
Q 1053 2347 1053 2006 
Q 1053 1675 1172 1387 
Q 1291 1100 1531 859 
Q 1769 622 2056 500 
Q 2347 378 2681 378 
Q 3016 378 3306 500 
Q 3594 622 3831 859 
Q 4072 1100 4190 1387 
Q 4309 1675 4309 2006 
Q 4309 2347 4190 2634 
Q 4072 2922 3831 3163 
Q 3594 3400 3306 3522 
z
M 1878 3956 
Q 2250 4113 2681 4113 
Q 3113 4113 3484 3956 
Q 3856 3800 4163 3494 
Q 4472 3184 4625 2813 
Q 4778 2444 4778 2006 
Q 4778 1578 4625 1206 
Q 4472 838 4163 528 
Q 3856 222 3484 65 
Q 3113 -91 2681 -91 
Q 2250 -91 1878 65 
Q 1506 222 1200 528 
Q 891 838 738 1206 
Q 584 1578 584 2006 
Q 584 2444 738 2813 
Q 891 3184 1200 3494 
Q 1506 3800 1878 3956 
z
" id="DejaVuSans-2299" transform="scale(0.015625)"/>
      <path d="M 1588 -325 
Q 1188 -997 936 -1164 
Q 684 -1331 294 -1331 
L -159 -1331 
L -63 -850 
L 269 -850 
Q 509 -850 678 -719 
Q 847 -588 1056 -206 
L 1234 128 
L 459 3500 
L 1069 3500 
L 1650 819 
L 3256 3500 
L 3859 3500 
L 1588 -325 
z
" id="DejaVuSans-Oblique-79" transform="scale(0.015625)"/>
     </defs>
     <use transform="translate(0 0.125)" xlink:href="#DejaVuSans-28"/>
     <use transform="translate(39.013672 0.125)" xlink:href="#DejaVuSans-Oblique-78"/>
     <use transform="translate(117.675781 0.125)" xlink:href="#DejaVuSans-2295"/>
     <use transform="translate(220.947266 0.125)" xlink:href="#DejaVuSans-30"/>
     <use transform="translate(284.570312 0.125)" xlink:href="#DejaVuSans-29"/>
     <use transform="translate(343.066406 0.125)" xlink:href="#DejaVuSans-2299"/>
     <use transform="translate(446.337891 0.125)" xlink:href="#DejaVuSans-28"/>
     <use transform="translate(485.351562 0.125)" xlink:href="#DejaVuSans-Oblique-79"/>
     <use transform="translate(564.013672 0.125)" xlink:href="#DejaVuSans-2295"/>
     <use transform="translate(667.285156 0.125)" xlink:href="#DejaVuSans-30"/>
     <use transform="translate(730.908203 0.125)" xlink:href="#DejaVuSans-29"/>
     <use transform="translate(789.404297 0.125)" xlink:href="#DejaVuSans-2299"/>
     <use transform="translate(892.675781 0.125)" xlink:href="#DejaVuSans-28"/>
     <use transform="translate(931.689453 0.125)" xlink:href="#DejaVuSans-Oblique-78"/>
     <use transform="translate(1010.351562 0.125)" xlink:href="#DejaVuSans-2299"/>
     <use transform="translate(1113.623047 0.125)" xlink:href="#DejaVuSans-Oblique-79"/>
     <use transform="translate(1192.285156 0.125)" xlink:href="#DejaVuSans-2295"/>
     <use transform="translate(1295.556641 0.125)" xlink:href="#DejaVuSans-30"/>
     <use transform="translate(1359.179688 0.125)" xlink:href="#DejaVuSans-29"/>
    </g>
   </g>
   <g id="text_7">
    <!-- $=$ -->
    <g transform="translate(304.513473 14.040818)scale(0.1 -0.1)">
     <use transform="translate(19.482422 0.59375)" xlink:href="#DejaVuSans-3d"/>
    </g>
   </g>
   <g id="text_8">
    <!-- $(x \odot y \oplus x \oplus 0) \odot (x \odot y \oplus y \oplus 0)$ -->
    <g transform="translate(368.335365 14.040818)scale(0.1 -0.1)">
     <use transform="translate(0 0.125)" xlink:href="#DejaVuSans-28"/>
     <use transform="translate(39.013672 0.125)" xlink:href="#DejaVuSans-Oblique-78"/>
     <use transform="translate(117.675781 0.125)" xlink:href="#DejaVuSans-2299"/>
     <use transform="translate(220.947266 0.125)" xlink:href="#DejaVuSans-Oblique-79"/>
     <use transform="translate(299.609375 0.125)" xlink:href="#DejaVuSans-2295"/>
     <use transform="translate(402.880859 0.125)" xlink:href="#DejaVuSans-Oblique-78"/>
     <use transform="translate(481.542969 0.125)" xlink:href="#DejaVuSans-2295"/>
     <use transform="translate(584.814453 0.125)" xlink:href="#DejaVuSans-30"/>
     <use transform="translate(648.4375 0.125)" xlink:href="#DejaVuSans-29"/>
     <use transform="translate(706.933594 0.125)" xlink:href="#DejaVuSans-2299"/>
     <use transform="translate(810.205078 0.125)" xlink:href="#DejaVuSans-28"/>
     <use transform="translate(849.21875 0.125)" xlink:href="#DejaVuSans-Oblique-78"/>
     <use transform="translate(927.880859 0.125)" xlink:href="#DejaVuSans-2299"/>
     <use transform="translate(1031.152344 0.125)" xlink:href="#DejaVuSans-Oblique-79"/>
     <use transform="translate(1109.814453 0.125)" xlink:href="#DejaVuSans-2295"/>
     <use transform="translate(1213.085938 0.125)" xlink:href="#DejaVuSans-Oblique-79"/>
     <use transform="translate(1291.748047 0.125)" xlink:href="#DejaVuSans-2295"/>
     <use transform="translate(1395.019531 0.125)" xlink:href="#DejaVuSans-30"/>
     <use transform="translate(1458.642578 0.125)" xlink:href="#DejaVuSans-29"/>
    </g>
   </g>
  </g>
 </g>
 <defs>
  <clipPath id="p89a08e24e6">
   <rect height="148.92" width="436.356" x="70.38" y="3.672"/>
  </clipPath>
 </defs>
</svg>
