<?xml version="1.0" encoding="utf-8" standalone="no"?>
<!DOCTYPE svg PUBLIC "-//W3C//DTD SVG 1.1//EN"
  "http://www.w3.org/Graphics/SVG/1.1/DTD/svg11.dtd">
<svg height="345.6pt" version="1.1" viewBox="0 0 875.52 345.6" width="875.52pt" xmlns="http://www.w3.org/2000/svg" xmlns:xlink="http://www.w3.org/1999/xlink">
 <metadata>
  <rdf:RDF xmlns:cc="http://creativecommons.org/ns#" xmlns:dc="http://purl.org/dc/elements/1.1/" xmlns:rdf="http://www.w3.org/1999/02/22-rdf-syntax-ns#">
   <cc:Work>
    <dc:type rdf:resource="http://purl.org/dc/dcmitype/StillImage"/>
    <dc:date>2022-06-05T11:19:03.539906</dc:date>
    <dc:format>image/svg+xml</dc:format>
    <dc:creator>
     <cc:Agent>
      <dc:title>Matplotlib v3.4.0, https://matplotlib.org/</dc:title>
     </cc:Agent>
    </dc:creator>
   </cc:Work>
  </rdf:RDF>
 </metadata>
 <defs>
  <style type="text/css">*{stroke-linecap:butt;stroke-linejoin:round;}</style>
 </defs>
 <g id="figure_1">
  <g id="patch_1">
   <path d="M 0 345.6 
L 875.52 345.6 
L 875.52 0 
L 0 0 
z
" style="fill:#ffffff;"/>
  </g>
  <g id="axes_1">
   <g id="line2d_1">
    <path clip-path="url(#p1c0abfdb91)" d="M 95.923532 231.384935 
L 186.188468 231.384935 
L 186.188468 141.369351 
L 95.923532 141.369351 
L 95.923532 231.384935 
" style="fill:none;stroke:#000000;stroke-width:1.5;"/>
   </g>
   <g id="line2d_2">
    <defs>
     <path d="M 0 3 
C 0.795609 3 1.55874 2.683901 2.12132 2.12132 
C 2.683901 1.55874 3 0.795609 3 0 
C 3 -0.795609 2.683901 -1.55874 2.12132 -2.12132 
C 1.55874 -2.683901 0.795609 -3 0 -3 
C -0.795609 -3 -1.55874 -2.683901 -2.12132 -2.12132 
C -2.683901 -1.55874 -3 -0.795609 -3 0 
C -3 0.795609 -2.683901 1.55874 -2.12132 2.12132 
C -1.55874 2.683901 -0.795609 3 0 3 
z
" id="me29fc830fc" style="stroke:#000000;"/>
    </defs>
    <g clip-path="url(#p1c0abfdb91)">
     <use style="stroke:#000000;" x="95.923532" xlink:href="#me29fc830fc" y="231.384935"/>
    </g>
   </g>
   <g id="line2d_3">
    <g clip-path="url(#p1c0abfdb91)">
     <use style="stroke:#000000;" x="186.188468" xlink:href="#me29fc830fc" y="231.384935"/>
    </g>
   </g>
   <g id="line2d_4">
    <g clip-path="url(#p1c0abfdb91)">
     <use style="stroke:#000000;" x="186.188468" xlink:href="#me29fc830fc" y="141.369351"/>
    </g>
   </g>
   <g id="line2d_5">
    <g clip-path="url(#p1c0abfdb91)">
     <use style="stroke:#000000;" x="95.923532" xlink:href="#me29fc830fc" y="141.369351"/>
    </g>
   </g>
   <g id="text_1">
    <!-- $P$ -->
    <g transform="translate(137.396 31.851429)scale(0.12 -0.12)">
     <defs>
      <path d="M 1081 4666 
L 2541 4666 
Q 3178 4666 3512 4369 
Q 3847 4072 3847 3500 
Q 3847 2731 3353 2303 
Q 2859 1875 1966 1875 
L 1172 1875 
L 806 0 
L 172 0 
L 1081 4666 
z
M 1613 4147 
L 1275 2394 
L 2069 2394 
Q 2606 2394 2893 2669 
Q 3181 2944 3181 3456 
Q 3181 3784 2986 3965 
Q 2791 4147 2438 4147 
L 1613 4147 
z
" id="DejaVuSans-Oblique-50" transform="scale(0.015625)"/>
     </defs>
     <use transform="translate(0 0.09375)" xlink:href="#DejaVuSans-Oblique-50"/>
    </g>
   </g>
  </g>
  <g id="axes_2">
   <g id="line2d_6">
    <path clip-path="url(#pdb6e403484)" d="M 332.903065 276.392727 
L 513.432935 186.377143 
L 423.168 96.361558 
L 332.903065 276.392727 
" style="fill:none;stroke:#000000;stroke-width:1.5;"/>
   </g>
   <g id="line2d_7">
    <g clip-path="url(#pdb6e403484)">
     <use style="stroke:#000000;" x="332.903065" xlink:href="#me29fc830fc" y="276.392727"/>
    </g>
   </g>
   <g id="line2d_8">
    <g clip-path="url(#pdb6e403484)">
     <use style="stroke:#000000;" x="513.432935" xlink:href="#me29fc830fc" y="186.377143"/>
    </g>
   </g>
   <g id="line2d_9">
    <g clip-path="url(#pdb6e403484)">
     <use style="stroke:#000000;" x="423.168" xlink:href="#me29fc830fc" y="96.361558"/>
    </g>
   </g>
   <g id="text_2">
    <!-- $Q$ -->
    <g transform="translate(418.428 31.851429)scale(0.12 -0.12)">
     <defs>
      <path d="M 2309 -84 
Q 2275 -88 2237 -89 
Q 2200 -91 2125 -91 
Q 1250 -91 756 411 
Q 263 913 263 1797 
Q 263 2319 452 2844 
Q 641 3369 978 3788 
Q 1369 4269 1858 4509 
Q 2347 4750 2938 4750 
Q 3794 4750 4287 4245 
Q 4781 3741 4781 2869 
Q 4781 1928 4265 1147 
Q 3750 366 2919 44 
L 3553 -825 
L 2847 -825 
L 2309 -84 
z
M 2919 4238 
Q 2400 4238 2003 3986 
Q 1606 3734 1313 3219 
Q 1125 2891 1026 2522 
Q 928 2153 928 1778 
Q 928 1128 1239 775 
Q 1550 422 2119 422 
Q 2631 422 3032 676 
Q 3434 931 3719 1434 
Q 3909 1772 4009 2142 
Q 4109 2513 4109 2881 
Q 4109 3528 3796 3883 
Q 3484 4238 2919 4238 
z
" id="DejaVuSans-Oblique-51" transform="scale(0.015625)"/>
     </defs>
     <use transform="translate(0 0.78125)" xlink:href="#DejaVuSans-Oblique-51"/>
    </g>
   </g>
  </g>
  <g id="axes_3">
   <g id="line2d_10">
    <path clip-path="url(#pa15978cb72)" d="M 660.147532 267.391169 
L 840.677403 177.375584 
L 750.412468 87.36 
L 660.147532 267.391169 
" style="fill:none;stroke:#f2f2f2;stroke-width:1.5;"/>
   </g>
   <g id="line2d_11">
    <path clip-path="url(#pa15978cb72)" d="M 660.147532 249.388052 
L 840.677403 159.372468 
L 750.412468 69.356883 
L 660.147532 249.388052 
" style="fill:none;stroke:#e6e6e6;stroke-width:1.5;"/>
   </g>
   <g id="line2d_12">
    <path clip-path="url(#pa15978cb72)" d="M 660.147532 231.384935 
L 840.677403 141.369351 
L 750.412468 51.353766 
L 660.147532 231.384935 
" style="fill:none;stroke:#d9d9d9;stroke-width:1.5;"/>
   </g>
   <g id="line2d_13">
    <path clip-path="url(#pa15978cb72)" d="M 642.094545 231.384935 
L 822.624416 141.369351 
L 732.359481 51.353766 
L 642.094545 231.384935 
" style="fill:none;stroke:#cccccc;stroke-width:1.5;"/>
   </g>
   <g id="line2d_14">
    <path clip-path="url(#pa15978cb72)" d="M 624.041558 231.384935 
L 804.571429 141.369351 
L 714.306494 51.353766 
L 624.041558 231.384935 
" style="fill:none;stroke:#bfbfbf;stroke-width:1.5;"/>
   </g>
   <g id="line2d_15">
    <path clip-path="url(#pa15978cb72)" d="M 605.988571 231.384935 
L 786.518442 141.369351 
L 696.253506 51.353766 
L 605.988571 231.384935 
" style="fill:none;stroke:#b2b2b2;stroke-width:1.5;"/>
   </g>
   <g id="line2d_16">
    <path clip-path="url(#pa15978cb72)" d="M 587.935584 231.384935 
L 768.465455 141.369351 
L 678.200519 51.353766 
L 587.935584 231.384935 
" style="fill:none;stroke:#a6a6a6;stroke-width:1.5;"/>
   </g>
   <g id="line2d_17">
    <path clip-path="url(#pa15978cb72)" d="M 569.882597 231.384935 
L 750.412468 141.369351 
L 660.147532 51.353766 
L 569.882597 231.384935 
" style="fill:none;stroke:#999999;stroke-width:1.5;"/>
   </g>
   <g id="line2d_18">
    <path clip-path="url(#pa15978cb72)" d="M 569.882597 321.400519 
L 660.147532 321.400519 
L 660.147532 231.384935 
L 569.882597 231.384935 
L 569.882597 321.400519 
" style="fill:none;stroke:#999999;stroke-width:1.5;"/>
   </g>
   <g id="line2d_19">
    <path clip-path="url(#pa15978cb72)" d="M 569.882597 321.400519 
L 660.147532 321.400519 
L 840.677403 231.384935 
L 840.677403 141.369351 
L 750.412468 51.353766 
L 660.147532 51.353766 
L 569.882597 231.384935 
L 569.882597 321.400519 
" style="fill:none;stroke:#000000;stroke-width:1.5;"/>
   </g>
   <g id="line2d_20">
    <g clip-path="url(#pa15978cb72)">
     <use style="stroke:#000000;" x="569.882597" xlink:href="#me29fc830fc" y="321.400519"/>
    </g>
   </g>
   <g id="line2d_21">
    <g clip-path="url(#pa15978cb72)">
     <use style="stroke:#000000;" x="660.147532" xlink:href="#me29fc830fc" y="321.400519"/>
    </g>
   </g>
   <g id="line2d_22">
    <g clip-path="url(#pa15978cb72)">
     <use style="stroke:#000000;" x="840.677403" xlink:href="#me29fc830fc" y="231.384935"/>
    </g>
   </g>
   <g id="line2d_23">
    <g clip-path="url(#pa15978cb72)">
     <use style="stroke:#000000;" x="840.677403" xlink:href="#me29fc830fc" y="141.369351"/>
    </g>
   </g>
   <g id="line2d_24">
    <g clip-path="url(#pa15978cb72)">
     <use style="stroke:#000000;" x="750.412468" xlink:href="#me29fc830fc" y="51.353766"/>
    </g>
   </g>
   <g id="line2d_25">
    <g clip-path="url(#pa15978cb72)">
     <use style="stroke:#000000;" x="660.147532" xlink:href="#me29fc830fc" y="51.353766"/>
    </g>
   </g>
   <g id="line2d_26">
    <g clip-path="url(#pa15978cb72)">
     <use style="stroke:#000000;" x="569.882597" xlink:href="#me29fc830fc" y="231.384935"/>
    </g>
   </g>
   <g id="text_3">
    <!-- $P+Q$ -->
    <g transform="translate(689.56 31.851429)scale(0.12 -0.12)">
     <defs>
      <path d="M 2944 4013 
L 2944 2272 
L 4684 2272 
L 4684 1741 
L 2944 1741 
L 2944 0 
L 2419 0 
L 2419 1741 
L 678 1741 
L 678 2272 
L 2419 2272 
L 2419 4013 
L 2944 4013 
z
" id="DejaVuSans-2b" transform="scale(0.015625)"/>
     </defs>
     <use transform="translate(0 0.78125)" xlink:href="#DejaVuSans-Oblique-50"/>
     <use transform="translate(79.785156 0.78125)" xlink:href="#DejaVuSans-2b"/>
     <use transform="translate(183.056641 0.78125)" xlink:href="#DejaVuSans-Oblique-51"/>
    </g>
   </g>
  </g>
 </g>
 <defs>
  <clipPath id="p1c0abfdb91">
   <rect height="297.051429" width="282.112" x="0" y="37.851429"/>
  </clipPath>
  <clipPath id="pdb6e403484">
   <rect height="297.051429" width="282.112" x="282.112" y="37.851429"/>
  </clipPath>
  <clipPath id="pa15978cb72">
   <rect height="297.051429" width="282.112" x="564.224" y="37.851429"/>
  </clipPath>
 </defs>
</svg>
