<?xml version="1.0" encoding="utf-8" standalone="no"?>
<!DOCTYPE svg PUBLIC "-//W3C//DTD SVG 1.1//EN"
  "http://www.w3.org/Graphics/SVG/1.1/DTD/svg11.dtd">
<svg height="213.12pt" version="1.1" viewBox="0 0 356.4 213.12" width="356.4pt" xmlns="http://www.w3.org/2000/svg" xmlns:xlink="http://www.w3.org/1999/xlink">
 <metadata>
  <rdf:RDF xmlns:cc="http://creativecommons.org/ns#" xmlns:dc="http://purl.org/dc/elements/1.1/" xmlns:rdf="http://www.w3.org/1999/02/22-rdf-syntax-ns#">
   <cc:Work>
    <dc:type rdf:resource="http://purl.org/dc/dcmitype/StillImage"/>
    <dc:date>2022-06-04T23:59:22.322671</dc:date>
    <dc:format>image/svg+xml</dc:format>
    <dc:creator>
     <cc:Agent>
      <dc:title>Matplotlib v3.4.0, https://matplotlib.org/</dc:title>
     </cc:Agent>
    </dc:creator>
   </cc:Work>
  </rdf:RDF>
 </metadata>
 <defs>
  <style type="text/css">*{stroke-linecap:butt;stroke-linejoin:round;}</style>
 </defs>
 <g id="figure_1">
  <g id="patch_1">
   <path d="M 0 213.12 
L 356.4 213.12 
L 356.4 0 
L 0 0 
z
" style="fill:#ffffff;"/>
  </g>
  <g id="axes_1">
   <g id="line2d_1">
    <path clip-path="url(#p67a47ab278)" d="M 104.388915 185.733571 
L 182.655 185.733571 
L 260.921085 107.6256 
L 260.921085 29.517629 
L 182.655 29.517629 
L 104.388915 107.6256 
L 104.388915 185.733571 
" style="fill:none;stroke:#000000;stroke-linecap:square;stroke-width:1.5;"/>
   </g>
   <g id="line2d_2">
    <defs>
     <path d="M 0 3 
C 0.795609 3 1.55874 2.683901 2.12132 2.12132 
C 2.683901 1.55874 3 0.795609 3 0 
C 3 -0.795609 2.683901 -1.55874 2.12132 -2.12132 
C 1.55874 -2.683901 0.795609 -3 0 -3 
C -0.795609 -3 -1.55874 -2.683901 -2.12132 -2.12132 
C -2.683901 -1.55874 -3 -0.795609 -3 0 
C -3 0.795609 -2.683901 1.55874 -2.12132 2.12132 
C -1.55874 2.683901 -0.795609 3 0 3 
z
" id="m042d790a3b" style="stroke:#000000;"/>
    </defs>
    <g clip-path="url(#p67a47ab278)">
     <use style="stroke:#000000;" x="104.388915" xlink:href="#m042d790a3b" y="185.733571"/>
    </g>
   </g>
   <g id="line2d_3">
    <g clip-path="url(#p67a47ab278)">
     <use style="stroke:#000000;" x="182.655" xlink:href="#m042d790a3b" y="185.733571"/>
    </g>
   </g>
   <g id="line2d_4">
    <g clip-path="url(#p67a47ab278)">
     <use style="stroke:#000000;" x="260.921085" xlink:href="#m042d790a3b" y="107.6256"/>
    </g>
   </g>
   <g id="line2d_5">
    <g clip-path="url(#p67a47ab278)">
     <use style="stroke:#000000;" x="260.921085" xlink:href="#m042d790a3b" y="29.517629"/>
    </g>
   </g>
   <g id="line2d_6">
    <g clip-path="url(#p67a47ab278)">
     <use style="stroke:#000000;" x="182.655" xlink:href="#m042d790a3b" y="29.517629"/>
    </g>
   </g>
   <g id="line2d_7">
    <g clip-path="url(#p67a47ab278)">
     <use style="stroke:#000000;" x="104.388915" xlink:href="#m042d790a3b" y="107.6256"/>
    </g>
   </g>
   <g id="text_1">
    <!-- $(0,0)$ -->
    <g transform="translate(104.388915 201.355166)scale(0.1 -0.1)">
     <defs>
      <path d="M 1984 4856 
Q 1566 4138 1362 3434 
Q 1159 2731 1159 2009 
Q 1159 1288 1364 580 
Q 1569 -128 1984 -844 
L 1484 -844 
Q 1016 -109 783 600 
Q 550 1309 550 2009 
Q 550 2706 781 3412 
Q 1013 4119 1484 4856 
L 1984 4856 
z
" id="DejaVuSans-28" transform="scale(0.015625)"/>
      <path d="M 2034 4250 
Q 1547 4250 1301 3770 
Q 1056 3291 1056 2328 
Q 1056 1369 1301 889 
Q 1547 409 2034 409 
Q 2525 409 2770 889 
Q 3016 1369 3016 2328 
Q 3016 3291 2770 3770 
Q 2525 4250 2034 4250 
z
M 2034 4750 
Q 2819 4750 3233 4129 
Q 3647 3509 3647 2328 
Q 3647 1150 3233 529 
Q 2819 -91 2034 -91 
Q 1250 -91 836 529 
Q 422 1150 422 2328 
Q 422 3509 836 4129 
Q 1250 4750 2034 4750 
z
" id="DejaVuSans-30" transform="scale(0.015625)"/>
      <path d="M 750 794 
L 1409 794 
L 1409 256 
L 897 -744 
L 494 -744 
L 750 256 
L 750 794 
z
" id="DejaVuSans-2c" transform="scale(0.015625)"/>
      <path d="M 513 4856 
L 1013 4856 
Q 1481 4119 1714 3412 
Q 1947 2706 1947 2009 
Q 1947 1309 1714 600 
Q 1481 -109 1013 -844 
L 513 -844 
Q 928 -128 1133 580 
Q 1338 1288 1338 2009 
Q 1338 2731 1133 3434 
Q 928 4138 513 4856 
z
" id="DejaVuSans-29" transform="scale(0.015625)"/>
     </defs>
     <use transform="translate(0 0.125)" xlink:href="#DejaVuSans-28"/>
     <use transform="translate(39.013672 0.125)" xlink:href="#DejaVuSans-30"/>
     <use transform="translate(102.636719 0.125)" xlink:href="#DejaVuSans-2c"/>
     <use transform="translate(153.90625 0.125)" xlink:href="#DejaVuSans-30"/>
     <use transform="translate(217.529297 0.125)" xlink:href="#DejaVuSans-29"/>
    </g>
   </g>
   <g id="text_2">
    <!-- $(1,0)$ -->
    <g transform="translate(182.655 201.355166)scale(0.1 -0.1)">
     <defs>
      <path d="M 794 531 
L 1825 531 
L 1825 4091 
L 703 3866 
L 703 4441 
L 1819 4666 
L 2450 4666 
L 2450 531 
L 3481 531 
L 3481 0 
L 794 0 
L 794 531 
z
" id="DejaVuSans-31" transform="scale(0.015625)"/>
     </defs>
     <use transform="translate(0 0.125)" xlink:href="#DejaVuSans-28"/>
     <use transform="translate(39.013672 0.125)" xlink:href="#DejaVuSans-31"/>
     <use transform="translate(102.636719 0.125)" xlink:href="#DejaVuSans-2c"/>
     <use transform="translate(153.90625 0.125)" xlink:href="#DejaVuSans-30"/>
     <use transform="translate(217.529297 0.125)" xlink:href="#DejaVuSans-29"/>
    </g>
   </g>
   <g id="text_3">
    <!-- $(2,1)$ -->
    <g transform="translate(260.921085 123.247194)scale(0.1 -0.1)">
     <defs>
      <path d="M 1228 531 
L 3431 531 
L 3431 0 
L 469 0 
L 469 531 
Q 828 903 1448 1529 
Q 2069 2156 2228 2338 
Q 2531 2678 2651 2914 
Q 2772 3150 2772 3378 
Q 2772 3750 2511 3984 
Q 2250 4219 1831 4219 
Q 1534 4219 1204 4116 
Q 875 4013 500 3803 
L 500 4441 
Q 881 4594 1212 4672 
Q 1544 4750 1819 4750 
Q 2544 4750 2975 4387 
Q 3406 4025 3406 3419 
Q 3406 3131 3298 2873 
Q 3191 2616 2906 2266 
Q 2828 2175 2409 1742 
Q 1991 1309 1228 531 
z
" id="DejaVuSans-32" transform="scale(0.015625)"/>
     </defs>
     <use transform="translate(0 0.125)" xlink:href="#DejaVuSans-28"/>
     <use transform="translate(39.013672 0.125)" xlink:href="#DejaVuSans-32"/>
     <use transform="translate(102.636719 0.125)" xlink:href="#DejaVuSans-2c"/>
     <use transform="translate(153.90625 0.125)" xlink:href="#DejaVuSans-31"/>
     <use transform="translate(217.529297 0.125)" xlink:href="#DejaVuSans-29"/>
    </g>
   </g>
   <g id="text_4">
    <!-- $(2,2)$ -->
    <g transform="translate(260.921085 45.139223)scale(0.1 -0.1)">
     <use transform="translate(0 0.125)" xlink:href="#DejaVuSans-28"/>
     <use transform="translate(39.013672 0.125)" xlink:href="#DejaVuSans-32"/>
     <use transform="translate(102.636719 0.125)" xlink:href="#DejaVuSans-2c"/>
     <use transform="translate(153.90625 0.125)" xlink:href="#DejaVuSans-32"/>
     <use transform="translate(217.529297 0.125)" xlink:href="#DejaVuSans-29"/>
    </g>
   </g>
   <g id="text_5">
    <!-- $(1,2)$ -->
    <g transform="translate(182.655 45.139223)scale(0.1 -0.1)">
     <use transform="translate(0 0.125)" xlink:href="#DejaVuSans-28"/>
     <use transform="translate(39.013672 0.125)" xlink:href="#DejaVuSans-31"/>
     <use transform="translate(102.636719 0.125)" xlink:href="#DejaVuSans-2c"/>
     <use transform="translate(153.90625 0.125)" xlink:href="#DejaVuSans-32"/>
     <use transform="translate(217.529297 0.125)" xlink:href="#DejaVuSans-29"/>
    </g>
   </g>
   <g id="text_6">
    <!-- $(0,1)$ -->
    <g transform="translate(104.388915 123.247194)scale(0.1 -0.1)">
     <use transform="translate(0 0.125)" xlink:href="#DejaVuSans-28"/>
     <use transform="translate(39.013672 0.125)" xlink:href="#DejaVuSans-30"/>
     <use transform="translate(102.636719 0.125)" xlink:href="#DejaVuSans-2c"/>
     <use transform="translate(153.90625 0.125)" xlink:href="#DejaVuSans-31"/>
     <use transform="translate(217.529297 0.125)" xlink:href="#DejaVuSans-29"/>
    </g>
   </g>
  </g>
 </g>
 <defs>
  <clipPath id="p67a47ab278">
   <rect height="164.1024" width="276.21" x="44.55" y="25.5744"/>
  </clipPath>
 </defs>
</svg>
