<?xml version="1.0" encoding="utf-8" standalone="no"?>
<!DOCTYPE svg PUBLIC "-//W3C//DTD SVG 1.1//EN"
  "http://www.w3.org/Graphics/SVG/1.1/DTD/svg11.dtd">
<svg height="316.08pt" version="1.1" viewBox="0 0 630.72 316.08" width="630.72pt" xmlns="http://www.w3.org/2000/svg" xmlns:xlink="http://www.w3.org/1999/xlink">
 <metadata>
  <rdf:RDF xmlns:cc="http://creativecommons.org/ns#" xmlns:dc="http://purl.org/dc/elements/1.1/" xmlns:rdf="http://www.w3.org/1999/02/22-rdf-syntax-ns#">
   <cc:Work>
    <dc:type rdf:resource="http://purl.org/dc/dcmitype/StillImage"/>
    <dc:date>2022-05-18T22:40:45.702788</dc:date>
    <dc:format>image/svg+xml</dc:format>
    <dc:creator>
     <cc:Agent>
      <dc:title>Matplotlib v3.4.0, https://matplotlib.org/</dc:title>
     </cc:Agent>
    </dc:creator>
   </cc:Work>
  </rdf:RDF>
 </metadata>
 <defs>
  <style type="text/css">*{stroke-linecap:butt;stroke-linejoin:round;}</style>
 </defs>
 <g id="figure_1">
  <g id="patch_1">
   <path d="M 0 316.08 
L 630.72 316.08 
L 630.72 0 
L 0 0 
z
" style="fill:#ffffff;"/>
  </g>
  <g id="axes_1">
   <g id="patch_2">
    <path d="M 33.037714 298.018286 
L 289.694338 298.018286 
L 289.694338 27.845143 
L 33.037714 27.845143 
z
" style="fill:#ffffff;"/>
   </g>
   <g id="matplotlib.axis_1">
    <g id="xtick_1">
     <g id="line2d_1">
      <defs>
       <path d="M 0 0 
L 0 3.5 
" id="me45feab6ce" style="stroke:#000000;stroke-width:0.8;"/>
      </defs>
      <g>
       <use style="stroke:#000000;stroke-width:0.8;" x="161.366026" xlink:href="#me45feab6ce" y="215.562846"/>
      </g>
     </g>
     <g id="text_1">
      <!-- −1 -->
      <g transform="translate(153.994932 230.161284)scale(0.1 -0.1)">
       <defs>
        <path d="M 678 2272 
L 4684 2272 
L 4684 1741 
L 678 1741 
L 678 2272 
z
" id="DejaVuSans-2212" transform="scale(0.015625)"/>
        <path d="M 794 531 
L 1825 531 
L 1825 4091 
L 703 3866 
L 703 4441 
L 1819 4666 
L 2450 4666 
L 2450 531 
L 3481 531 
L 3481 0 
L 794 0 
L 794 531 
z
" id="DejaVuSans-31" transform="scale(0.015625)"/>
       </defs>
       <use xlink:href="#DejaVuSans-2212"/>
       <use x="83.789062" xlink:href="#DejaVuSans-31"/>
      </g>
     </g>
    </g>
   </g>
   <g id="matplotlib.axis_2"/>
   <g id="line2d_2">
    <path clip-path="url(#pccf3c38a3a)" d="M 108.734894 57.669451 
L 109.798149 63.984542 
L 110.861405 70.170754 
L 111.92466 76.228087 
L 112.987915 82.15654 
L 114.05117 87.956114 
L 115.114425 93.626808 
L 116.177681 99.168623 
L 117.240936 104.581558 
L 118.304191 109.865615 
L 119.367446 115.020791 
L 120.430701 120.047088 
L 121.493956 124.944506 
L 122.557212 129.713045 
L 123.620467 134.352704 
L 124.683722 138.863483 
L 125.746977 143.245383 
L 126.810232 147.498404 
L 127.873488 151.622545 
L 128.936743 155.617807 
L 129.999998 159.48419 
L 131.063253 163.221693 
L 132.126508 166.830317 
L 133.189764 170.310061 
L 134.253019 173.660926 
L 135.316274 176.882911 
L 136.379529 179.976017 
L 137.442784 182.940244 
L 138.506039 185.775591 
L 139.569295 188.482059 
L 140.63255 191.059647 
L 141.695805 193.508356 
L 142.75906 195.828185 
L 143.822315 198.019135 
L 144.885571 200.081206 
L 145.948826 202.014397 
L 147.012081 203.818709 
L 148.075336 205.494142 
L 149.138591 207.040695 
L 150.201847 208.458368 
L 151.265102 209.747162 
L 152.328357 210.907077 
L 153.391612 211.938112 
L 154.454867 212.840268 
L 155.518122 213.613545 
L 156.581378 214.257942 
L 157.644633 214.77346 
L 158.707888 215.160098 
L 159.771143 215.417857 
L 160.834398 215.546736 
L 161.897654 215.546736 
L 162.960909 215.417857 
L 164.024164 215.160098 
L 165.087419 214.77346 
L 166.150674 214.257942 
L 167.213929 213.613545 
L 168.277185 212.840268 
L 169.34044 211.938112 
L 170.403695 210.907077 
L 171.46695 209.747162 
L 172.530205 208.458368 
L 173.593461 207.040695 
L 174.656716 205.494142 
L 175.719971 203.818709 
L 176.783226 202.014397 
L 177.846481 200.081206 
L 178.909737 198.019135 
L 179.972992 195.828185 
L 181.036247 193.508356 
L 182.099502 191.059647 
L 183.162757 188.482059 
L 184.226012 185.775591 
L 185.289268 182.940244 
L 186.352523 179.976017 
L 187.415778 176.882911 
L 188.479033 173.660926 
L 189.542288 170.310061 
L 190.605544 166.830317 
L 191.668799 163.221693 
L 192.732054 159.48419 
L 193.795309 155.617807 
L 194.858564 151.622545 
L 195.92182 147.498404 
L 196.985075 143.245383 
L 198.04833 138.863483 
L 199.111585 134.352704 
L 200.17484 129.713045 
L 201.238095 124.944506 
L 202.301351 120.047088 
L 203.364606 115.020791 
L 204.427861 109.865615 
L 205.491116 104.581558 
L 206.554371 99.168623 
L 207.617627 93.626808 
L 208.680882 87.956114 
L 209.744137 82.15654 
L 210.807392 76.228087 
L 211.870647 70.170754 
L 212.933903 63.984542 
L 213.997158 57.669451 
" style="fill:none;stroke:#1f77b4;stroke-linecap:square;stroke-width:1.5;"/>
   </g>
   <g id="patch_3">
    <path d="M 178.909737 298.018286 
L 178.909737 27.845143 
" style="fill:none;stroke:#000000;stroke-linecap:square;stroke-linejoin:miter;stroke-width:0.8;"/>
   </g>
   <g id="patch_4">
    <path d="M 289.694338 298.018286 
L 289.694338 27.845143 
" style="fill:none;"/>
   </g>
   <g id="patch_5">
    <path d="M 33.037714 215.562846 
L 289.694338 215.562846 
" style="fill:none;stroke:#000000;stroke-linecap:square;stroke-linejoin:miter;stroke-width:0.8;"/>
   </g>
   <g id="patch_6">
    <path d="M 33.037714 27.845143 
L 289.694338 27.845143 
" style="fill:none;"/>
   </g>
   <g id="text_2">
    <!-- $p(x) = x^2 + 2x + 1 = (x + 1)^2$ -->
    <g transform="translate(79.706026 21.845143)scale(0.12 -0.12)">
     <defs>
      <path d="M 3175 2156 
Q 3175 2616 2975 2859 
Q 2775 3103 2400 3103 
Q 2144 3103 1911 2972 
Q 1678 2841 1497 2591 
Q 1319 2344 1212 1994 
Q 1106 1644 1106 1300 
Q 1106 863 1306 627 
Q 1506 391 1875 391 
Q 2147 391 2380 519 
Q 2613 647 2778 891 
Q 2956 1147 3065 1494 
Q 3175 1841 3175 2156 
z
M 1394 2969 
Q 1625 3272 1939 3428 
Q 2253 3584 2638 3584 
Q 3175 3584 3472 3232 
Q 3769 2881 3769 2247 
Q 3769 1728 3584 1258 
Q 3400 788 3053 416 
Q 2822 169 2531 39 
Q 2241 -91 1919 -91 
Q 1547 -91 1294 64 
Q 1041 219 916 525 
L 556 -1331 
L -19 -1331 
L 922 3500 
L 1497 3500 
L 1394 2969 
z
" id="DejaVuSans-Oblique-70" transform="scale(0.015625)"/>
      <path d="M 1984 4856 
Q 1566 4138 1362 3434 
Q 1159 2731 1159 2009 
Q 1159 1288 1364 580 
Q 1569 -128 1984 -844 
L 1484 -844 
Q 1016 -109 783 600 
Q 550 1309 550 2009 
Q 550 2706 781 3412 
Q 1013 4119 1484 4856 
L 1984 4856 
z
" id="DejaVuSans-28" transform="scale(0.015625)"/>
      <path d="M 3841 3500 
L 2234 1784 
L 3219 0 
L 2559 0 
L 1819 1388 
L 531 0 
L -166 0 
L 1556 1844 
L 641 3500 
L 1300 3500 
L 1972 2234 
L 3144 3500 
L 3841 3500 
z
" id="DejaVuSans-Oblique-78" transform="scale(0.015625)"/>
      <path d="M 513 4856 
L 1013 4856 
Q 1481 4119 1714 3412 
Q 1947 2706 1947 2009 
Q 1947 1309 1714 600 
Q 1481 -109 1013 -844 
L 513 -844 
Q 928 -128 1133 580 
Q 1338 1288 1338 2009 
Q 1338 2731 1133 3434 
Q 928 4138 513 4856 
z
" id="DejaVuSans-29" transform="scale(0.015625)"/>
      <path d="M 678 2906 
L 4684 2906 
L 4684 2381 
L 678 2381 
L 678 2906 
z
M 678 1631 
L 4684 1631 
L 4684 1100 
L 678 1100 
L 678 1631 
z
" id="DejaVuSans-3d" transform="scale(0.015625)"/>
      <path d="M 1228 531 
L 3431 531 
L 3431 0 
L 469 0 
L 469 531 
Q 828 903 1448 1529 
Q 2069 2156 2228 2338 
Q 2531 2678 2651 2914 
Q 2772 3150 2772 3378 
Q 2772 3750 2511 3984 
Q 2250 4219 1831 4219 
Q 1534 4219 1204 4116 
Q 875 4013 500 3803 
L 500 4441 
Q 881 4594 1212 4672 
Q 1544 4750 1819 4750 
Q 2544 4750 2975 4387 
Q 3406 4025 3406 3419 
Q 3406 3131 3298 2873 
Q 3191 2616 2906 2266 
Q 2828 2175 2409 1742 
Q 1991 1309 1228 531 
z
" id="DejaVuSans-32" transform="scale(0.015625)"/>
      <path d="M 2944 4013 
L 2944 2272 
L 4684 2272 
L 4684 1741 
L 2944 1741 
L 2944 0 
L 2419 0 
L 2419 1741 
L 678 1741 
L 678 2272 
L 2419 2272 
L 2419 4013 
L 2944 4013 
z
" id="DejaVuSans-2b" transform="scale(0.015625)"/>
     </defs>
     <use transform="translate(0 0.765625)" xlink:href="#DejaVuSans-Oblique-70"/>
     <use transform="translate(63.476562 0.765625)" xlink:href="#DejaVuSans-28"/>
     <use transform="translate(102.490234 0.765625)" xlink:href="#DejaVuSans-Oblique-78"/>
     <use transform="translate(161.669922 0.765625)" xlink:href="#DejaVuSans-29"/>
     <use transform="translate(220.166016 0.765625)" xlink:href="#DejaVuSans-3d"/>
     <use transform="translate(323.4375 0.765625)" xlink:href="#DejaVuSans-Oblique-78"/>
     <use transform="translate(387.083333 39.046875)scale(0.7)" xlink:href="#DejaVuSans-32"/>
     <use transform="translate(453.836263 0.765625)" xlink:href="#DejaVuSans-2b"/>
     <use transform="translate(557.107747 0.765625)" xlink:href="#DejaVuSans-32"/>
     <use transform="translate(620.730794 0.765625)" xlink:href="#DejaVuSans-Oblique-78"/>
     <use transform="translate(699.392904 0.765625)" xlink:href="#DejaVuSans-2b"/>
     <use transform="translate(802.664388 0.765625)" xlink:href="#DejaVuSans-31"/>
     <use transform="translate(885.769857 0.765625)" xlink:href="#DejaVuSans-3d"/>
     <use transform="translate(989.041341 0.765625)" xlink:href="#DejaVuSans-28"/>
     <use transform="translate(1028.055013 0.765625)" xlink:href="#DejaVuSans-Oblique-78"/>
     <use transform="translate(1106.717122 0.765625)" xlink:href="#DejaVuSans-2b"/>
     <use transform="translate(1209.988607 0.765625)" xlink:href="#DejaVuSans-31"/>
     <use transform="translate(1273.611654 0.765625)" xlink:href="#DejaVuSans-29"/>
     <use transform="translate(1313.582357 39.046875)scale(0.7)" xlink:href="#DejaVuSans-32"/>
    </g>
   </g>
  </g>
  <g id="axes_2">
   <g id="patch_7">
    <path d="M 341.025662 298.018286 
L 597.682286 298.018286 
L 597.682286 27.845143 
L 341.025662 27.845143 
z
" style="fill:#ffffff;"/>
   </g>
   <g id="matplotlib.axis_3">
    <g id="xtick_2">
     <g id="line2d_3">
      <g>
       <use style="stroke:#000000;stroke-width:0.8;" x="460.582119" xlink:href="#me45feab6ce" y="215.562846"/>
      </g>
     </g>
     <g id="text_3">
      <!-- −1 -->
      <g transform="translate(453.211025 230.161284)scale(0.1 -0.1)">
       <use xlink:href="#DejaVuSans-2212"/>
       <use x="83.789062" xlink:href="#DejaVuSans-31"/>
      </g>
     </g>
    </g>
    <g id="xtick_3">
     <g id="line2d_4">
      <g>
       <use style="stroke:#000000;stroke-width:0.8;" x="513.21325" xlink:href="#me45feab6ce" y="215.562846"/>
      </g>
     </g>
     <g id="text_4">
      <!-- 2 -->
      <g transform="translate(510.032 230.161284)scale(0.1 -0.1)">
       <use xlink:href="#DejaVuSans-32"/>
      </g>
     </g>
    </g>
   </g>
   <g id="matplotlib.axis_4"/>
   <g id="line2d_5">
    <path clip-path="url(#pd5ac55fd08)" d="M 460.582119 215.562846 
L 460.582119 198.019135 
" style="fill:none;stroke:#e6e6e6;stroke-dasharray:5.55,2.4;stroke-dashoffset:0;stroke-width:1.5;"/>
   </g>
   <g id="line2d_6">
    <path clip-path="url(#pd5ac55fd08)" d="M 513.21325 215.562846 
L 513.21325 145.388004 
" style="fill:none;stroke:#e6e6e6;stroke-dasharray:5.55,2.4;stroke-dashoffset:0;stroke-width:1.5;"/>
   </g>
   <g id="line2d_7">
    <path clip-path="url(#pd5ac55fd08)" d="M 443.038408 285.737688 
L 443.924454 283.965596 
L 444.8105 282.193504 
L 445.696546 280.421412 
L 446.582592 278.64932 
L 447.468638 276.877228 
L 448.354684 275.105136 
L 449.24073 273.333044 
L 450.126776 271.560952 
L 451.012822 269.788861 
L 451.898868 268.016769 
L 452.784914 266.244677 
L 453.67096 264.472585 
L 454.557006 262.700493 
L 455.443052 260.928401 
L 456.329098 259.156309 
L 457.215144 257.384217 
L 458.10119 255.612125 
L 458.987236 253.840033 
L 459.873282 252.067941 
L 460.759328 250.295849 
L 461.645374 248.523757 
L 462.53142 246.751665 
L 463.417466 244.979573 
L 464.303512 243.207481 
L 465.189558 241.435389 
L 466.075604 239.663297 
L 466.96165 237.891205 
L 467.847696 236.119113 
L 468.733742 234.347021 
L 469.619788 232.574929 
L 470.505834 230.802837 
L 471.39188 229.030745 
L 472.277926 227.258653 
L 473.163972 225.486561 
L 474.050018 223.714469 
L 474.936064 221.942377 
L 475.82211 220.170285 
L 476.708156 218.398193 
L 477.594202 216.626101 
L 478.480248 214.854009 
L 479.366294 213.081917 
L 480.25234 211.309825 
L 481.138386 209.537733 
L 482.024432 207.765641 
L 482.910478 205.993549 
L 483.796524 204.221457 
L 484.68257 202.449365 
L 485.568616 200.677273 
L 486.454662 198.905181 
L 487.340708 197.133089 
L 488.226754 195.360997 
L 489.1128 193.588905 
L 489.998846 191.816814 
L 490.884892 190.044722 
L 491.770938 188.27263 
L 492.656984 186.500538 
L 493.54303 184.728446 
L 494.429076 182.956354 
L 495.315121 181.184262 
L 496.201167 179.41217 
L 497.087213 177.640078 
L 497.973259 175.867986 
L 498.859305 174.095894 
L 499.745351 172.323802 
L 500.631397 170.55171 
L 501.517443 168.779618 
L 502.403489 167.007526 
L 503.289535 165.235434 
L 504.175581 163.463342 
L 505.061627 161.69125 
L 505.947673 159.919158 
L 506.833719 158.147066 
L 507.719765 156.374974 
L 508.605811 154.602882 
L 509.491857 152.83079 
L 510.377903 151.058698 
L 511.263949 149.286606 
L 512.149995 147.514514 
L 513.036041 145.742422 
L 513.922087 143.97033 
L 514.808133 142.198238 
L 515.694179 140.426146 
L 516.580225 138.654054 
L 517.466271 136.881962 
L 518.352317 135.10987 
L 519.238363 133.337778 
L 520.124409 131.565686 
L 521.010455 129.793594 
L 521.896501 128.021502 
L 522.782547 126.24941 
L 523.668593 124.477318 
L 524.554639 122.705226 
L 525.440685 120.933134 
L 526.326731 119.161042 
L 527.212777 117.38895 
L 528.098823 115.616858 
L 528.984869 113.844767 
L 529.870915 112.072675 
L 530.756961 110.300583 
" style="fill:none;stroke:#e6e6e6;stroke-linecap:square;stroke-width:1.5;"/>
   </g>
   <g id="line2d_8">
    <path clip-path="url(#pd5ac55fd08)" d="M 390.407276 268.193978 
L 391.82495 266.776304 
L 393.242624 265.358631 
L 394.660297 263.940957 
L 396.077971 262.523283 
L 397.495644 261.10561 
L 398.913318 259.687936 
L 400.330992 258.270263 
L 401.748665 256.852589 
L 403.166339 255.434916 
L 404.584012 254.017242 
L 406.001686 252.599568 
L 407.419359 251.181895 
L 408.837033 249.764221 
L 410.254707 248.346548 
L 411.67238 246.928874 
L 413.090054 245.5112 
L 414.507727 244.093527 
L 415.925401 242.675853 
L 417.343074 241.25818 
L 418.760748 239.840506 
L 420.178422 238.422833 
L 421.596095 237.005159 
L 423.013769 235.587485 
L 424.431442 234.169812 
L 425.849116 232.752138 
L 427.26679 231.334465 
L 428.684463 229.916791 
L 430.102137 228.499117 
L 431.51981 227.081444 
L 432.937484 225.66377 
L 434.355157 224.246097 
L 435.772831 222.828423 
L 437.190505 221.41075 
L 438.608178 219.993076 
L 440.025852 218.575402 
L 441.443525 217.157729 
L 442.861199 215.740055 
L 444.278873 214.322382 
L 445.696546 212.904708 
L 447.11422 211.487034 
L 448.531893 210.069361 
L 449.949567 208.651687 
L 451.36724 207.234014 
L 452.784914 205.81634 
L 454.202588 204.398667 
L 455.620261 202.980993 
L 457.037935 201.563319 
L 458.455608 200.145646 
L 459.873282 198.727972 
L 461.290956 197.310299 
L 462.708629 195.892625 
L 464.126303 194.474951 
L 465.543976 193.057278 
L 466.96165 191.639604 
L 468.379323 190.221931 
L 469.796997 188.804257 
L 471.214671 187.386584 
L 472.632344 185.96891 
L 474.050018 184.551236 
L 475.467691 183.133563 
L 476.885365 181.715889 
L 478.303039 180.298216 
L 479.720712 178.880542 
L 481.138386 177.462868 
L 482.556059 176.045195 
L 483.973733 174.627521 
L 485.391406 173.209848 
L 486.80908 171.792174 
L 488.226754 170.374501 
L 489.644427 168.956827 
L 491.062101 167.539153 
L 492.479774 166.12148 
L 493.897448 164.703806 
L 495.315121 163.286133 
L 496.732795 161.868459 
L 498.150469 160.450786 
L 499.568142 159.033112 
L 500.985816 157.615438 
L 502.403489 156.197765 
L 503.821163 154.780091 
L 505.238837 153.362418 
L 506.65651 151.944744 
L 508.074184 150.52707 
L 509.491857 149.109397 
L 510.909531 147.691723 
L 512.327204 146.27405 
L 513.744878 144.856376 
L 515.162552 143.438703 
L 516.580225 142.021029 
L 517.997899 140.603355 
L 519.415572 139.185682 
L 520.833246 137.768008 
L 522.25092 136.350335 
L 523.668593 134.932661 
L 525.086267 133.514987 
L 526.50394 132.097314 
L 527.921614 130.67964 
L 529.339287 129.261967 
L 530.756961 127.844293 
" style="fill:none;stroke:#e6e6e6;stroke-linecap:square;stroke-width:1.5;"/>
   </g>
   <g id="line2d_9">
    <path clip-path="url(#pd5ac55fd08)" d="M 372.863566 198.019135 
L 374.812867 198.019135 
L 376.762168 198.019135 
L 378.711469 198.019135 
L 380.660771 198.019135 
L 382.610072 198.019135 
L 384.559373 198.019135 
L 386.508674 198.019135 
L 388.457975 198.019135 
L 390.407276 198.019135 
L 392.356578 198.019135 
L 394.305879 198.019135 
L 396.25518 198.019135 
L 398.204481 198.019135 
L 400.153782 198.019135 
L 402.103083 198.019135 
L 404.052385 198.019135 
L 406.001686 198.019135 
L 407.950987 198.019135 
L 409.900288 198.019135 
L 411.849589 198.019135 
L 413.798891 198.019135 
L 415.748192 198.019135 
L 417.697493 198.019135 
L 419.646794 198.019135 
L 421.596095 198.019135 
L 423.545396 198.019135 
L 425.494698 198.019135 
L 427.443999 198.019135 
L 429.3933 198.019135 
L 431.342601 198.019135 
L 433.291902 198.019135 
L 435.241203 198.019135 
L 437.190505 198.019135 
L 439.139806 198.019135 
L 441.089107 198.019135 
L 443.038408 198.019135 
L 444.987709 198.019135 
L 446.937011 198.019135 
L 448.886312 198.019135 
L 450.835613 198.019135 
L 452.784914 198.019135 
L 454.734215 198.019135 
L 456.683516 198.019135 
L 458.632818 198.019135 
L 460.582119 198.019135 
L 462.53142 198.019135 
L 464.480721 198.019135 
L 466.430022 198.019135 
L 468.379323 198.019135 
L 470.328625 198.019135 
L 472.277926 198.019135 
L 474.227227 198.019135 
L 476.176528 198.019135 
L 478.125829 198.019135 
L 480.07513 198.019135 
L 482.024432 198.019135 
L 483.973733 198.019135 
L 485.923034 198.019135 
L 487.872335 198.019135 
L 489.821636 198.019135 
L 491.770938 198.019135 
L 493.720239 198.019135 
L 495.66954 198.019135 
L 497.618841 198.019135 
L 499.568142 198.019135 
L 501.517443 198.019135 
L 503.466745 198.019135 
L 505.416046 198.019135 
L 507.365347 198.019135 
L 509.314648 198.019135 
L 511.263949 198.019135 
L 513.21325 198.019135 
L 515.162552 198.019135 
L 517.111853 198.019135 
L 519.061154 198.019135 
L 521.010455 198.019135 
L 522.959756 198.019135 
L 524.909058 198.019135 
L 526.858359 198.019135 
L 528.80766 198.019135 
L 530.756961 198.019135 
L 532.706262 198.019135 
L 534.655563 198.019135 
L 536.604865 198.019135 
L 538.554166 198.019135 
L 540.503467 198.019135 
L 542.452768 198.019135 
L 544.402069 198.019135 
L 546.35137 198.019135 
L 548.300672 198.019135 
L 550.249973 198.019135 
L 552.199274 198.019135 
L 554.148575 198.019135 
L 556.097876 198.019135 
L 558.047177 198.019135 
L 559.996479 198.019135 
L 561.94578 198.019135 
L 563.895081 198.019135 
L 565.844382 198.019135 
" style="fill:none;stroke:#e6e6e6;stroke-linecap:square;stroke-width:1.5;"/>
   </g>
   <g id="line2d_10">
    <path clip-path="url(#pd5ac55fd08)" d="M 372.863566 198.019135 
L 374.812867 198.019135 
L 376.762168 198.019135 
L 378.711469 198.019135 
L 380.660771 198.019135 
L 382.610072 198.019135 
L 384.559373 198.019135 
L 386.508674 198.019135 
L 388.457975 198.019135 
L 390.407276 198.019135 
L 392.356578 198.019135 
L 394.305879 198.019135 
L 396.25518 198.019135 
L 398.204481 198.019135 
L 400.153782 198.019135 
L 402.103083 198.019135 
L 404.052385 198.019135 
L 406.001686 198.019135 
L 407.950987 198.019135 
L 409.900288 198.019135 
L 411.849589 198.019135 
L 413.798891 198.019135 
L 415.748192 198.019135 
L 417.697493 198.019135 
L 419.646794 198.019135 
L 421.596095 198.019135 
L 423.545396 198.019135 
L 425.494698 198.019135 
L 427.443999 198.019135 
L 429.3933 198.019135 
L 431.342601 198.019135 
L 433.291902 198.019135 
L 435.241203 198.019135 
L 437.190505 198.019135 
L 439.139806 198.019135 
L 441.089107 198.019135 
L 443.038408 198.019135 
L 444.987709 198.019135 
L 446.937011 198.019135 
L 448.886312 198.019135 
L 450.835613 198.019135 
L 452.784914 198.019135 
L 454.734215 198.019135 
L 456.683516 198.019135 
L 458.632818 198.019135 
L 460.582119 198.019135 
L 462.53142 196.069834 
L 464.480721 194.120533 
L 466.430022 192.171232 
L 468.379323 190.221931 
L 470.328625 188.27263 
L 472.277926 186.323328 
L 474.227227 184.374027 
L 476.176528 182.424726 
L 478.125829 180.475425 
L 480.07513 178.526124 
L 482.024432 176.576823 
L 483.973733 174.627521 
L 485.923034 172.67822 
L 487.872335 170.728919 
L 489.821636 168.779618 
L 491.770938 166.830317 
L 493.720239 164.881015 
L 495.66954 162.931714 
L 497.618841 160.982413 
L 499.568142 159.033112 
L 501.517443 157.083811 
L 503.466745 155.13451 
L 505.416046 153.185208 
L 507.365347 151.235907 
L 509.314648 149.286606 
L 511.263949 147.337305 
L 513.21325 145.388004 
L 515.162552 141.489401 
L 517.111853 137.590799 
L 519.061154 133.692197 
L 521.010455 129.793594 
L 522.959756 125.894992 
L 524.909058 121.99639 
L 526.858359 118.097787 
L 528.80766 114.199185 
L 530.756961 110.300583 
L 532.706262 106.40198 
L 534.655563 102.503378 
L 536.604865 98.604776 
L 538.554166 94.706173 
L 540.503467 90.807571 
L 542.452768 86.908968 
L 544.402069 83.010366 
L 546.35137 79.111764 
L 548.300672 75.213161 
L 550.249973 71.314559 
L 552.199274 67.415957 
L 554.148575 63.517354 
L 556.097876 59.618752 
L 558.047177 55.72015 
L 559.996479 51.821547 
L 561.94578 47.922945 
L 563.895081 44.024343 
L 565.844382 40.12574 
" style="fill:none;stroke:#1f77b4;stroke-linecap:square;stroke-width:1.5;"/>
   </g>
   <g id="patch_8">
    <path d="M 478.125829 298.018286 
L 478.125829 27.845143 
" style="fill:none;stroke:#000000;stroke-linecap:square;stroke-linejoin:miter;stroke-width:0.8;"/>
   </g>
   <g id="patch_9">
    <path d="M 597.682286 298.018286 
L 597.682286 27.845143 
" style="fill:none;"/>
   </g>
   <g id="patch_10">
    <path d="M 341.025662 215.562846 
L 597.682286 215.562846 
" style="fill:none;stroke:#000000;stroke-linecap:square;stroke-linejoin:miter;stroke-width:0.8;"/>
   </g>
   <g id="patch_11">
    <path d="M 341.025662 27.845143 
L 597.682286 27.845143 
" style="fill:none;"/>
   </g>
   <g id="text_5">
    <!-- $p(x) = x^2 \oplus 2 \odot x \oplus 1 = (x \oplus -1) \odot (x \oplus 2)$ -->
    <g transform="translate(349.053974 21.845143)scale(0.12 -0.12)">
     <defs>
      <path d="M 3306 3522 
Q 3016 3644 2681 3644 
Q 2347 3644 2056 3522 
Q 1769 3400 1531 3163 
Q 1291 2922 1172 2634 
Q 1053 2347 1053 2006 
Q 1053 1675 1172 1387 
Q 1291 1100 1531 859 
Q 1769 622 2056 500 
Q 2347 378 2681 378 
Q 3016 378 3306 500 
Q 3594 622 3831 859 
Q 4072 1100 4190 1387 
Q 4309 1675 4309 2006 
Q 4309 2347 4190 2634 
Q 4072 2922 3831 3163 
Q 3594 3400 3306 3522 
z
M 1878 3956 
Q 2250 4113 2681 4113 
Q 3113 4113 3484 3956 
Q 3856 3800 4163 3494 
Q 4472 3184 4625 2813 
Q 4778 2444 4778 2006 
Q 4778 1578 4625 1206 
Q 4472 838 4163 528 
Q 3856 222 3484 65 
Q 3113 -91 2681 -91 
Q 2250 -91 1878 65 
Q 1506 222 1200 528 
Q 891 838 738 1206 
Q 584 1578 584 2006 
Q 584 2444 738 2813 
Q 891 3184 1200 3494 
Q 1506 3800 1878 3956 
z
M 2947 3388 
L 2947 2272 
L 4059 2272 
L 4059 1741 
L 2947 1741 
L 2947 625 
L 2416 625 
L 2416 1741 
L 1303 1741 
L 1303 2272 
L 2416 2272 
L 2416 3388 
L 2947 3388 
z
" id="DejaVuSans-2295" transform="scale(0.015625)"/>
      <path d="M 2350 2403 
L 3013 2403 
L 3013 1609 
L 2350 1609 
L 2350 2403 
z
M 3306 3522 
Q 3016 3644 2681 3644 
Q 2347 3644 2056 3522 
Q 1769 3400 1531 3163 
Q 1291 2922 1172 2634 
Q 1053 2347 1053 2006 
Q 1053 1675 1172 1387 
Q 1291 1100 1531 859 
Q 1769 622 2056 500 
Q 2347 378 2681 378 
Q 3016 378 3306 500 
Q 3594 622 3831 859 
Q 4072 1100 4190 1387 
Q 4309 1675 4309 2006 
Q 4309 2347 4190 2634 
Q 4072 2922 3831 3163 
Q 3594 3400 3306 3522 
z
M 1878 3956 
Q 2250 4113 2681 4113 
Q 3113 4113 3484 3956 
Q 3856 3800 4163 3494 
Q 4472 3184 4625 2813 
Q 4778 2444 4778 2006 
Q 4778 1578 4625 1206 
Q 4472 838 4163 528 
Q 3856 222 3484 65 
Q 3113 -91 2681 -91 
Q 2250 -91 1878 65 
Q 1506 222 1200 528 
Q 891 838 738 1206 
Q 584 1578 584 2006 
Q 584 2444 738 2813 
Q 891 3184 1200 3494 
Q 1506 3800 1878 3956 
z
" id="DejaVuSans-2299" transform="scale(0.015625)"/>
     </defs>
     <use transform="translate(0 0.765625)" xlink:href="#DejaVuSans-Oblique-70"/>
     <use transform="translate(63.476562 0.765625)" xlink:href="#DejaVuSans-28"/>
     <use transform="translate(102.490234 0.765625)" xlink:href="#DejaVuSans-Oblique-78"/>
     <use transform="translate(161.669922 0.765625)" xlink:href="#DejaVuSans-29"/>
     <use transform="translate(220.166016 0.765625)" xlink:href="#DejaVuSans-3d"/>
     <use transform="translate(323.4375 0.765625)" xlink:href="#DejaVuSans-Oblique-78"/>
     <use transform="translate(387.083333 39.046875)scale(0.7)" xlink:href="#DejaVuSans-32"/>
     <use transform="translate(453.836263 0.765625)" xlink:href="#DejaVuSans-2295"/>
     <use transform="translate(557.107747 0.765625)" xlink:href="#DejaVuSans-32"/>
     <use transform="translate(640.213216 0.765625)" xlink:href="#DejaVuSans-2299"/>
     <use transform="translate(743.484701 0.765625)" xlink:href="#DejaVuSans-Oblique-78"/>
     <use transform="translate(822.14681 0.765625)" xlink:href="#DejaVuSans-2295"/>
     <use transform="translate(925.418294 0.765625)" xlink:href="#DejaVuSans-31"/>
     <use transform="translate(1008.523763 0.765625)" xlink:href="#DejaVuSans-3d"/>
     <use transform="translate(1111.795247 0.765625)" xlink:href="#DejaVuSans-28"/>
     <use transform="translate(1150.808919 0.765625)" xlink:href="#DejaVuSans-Oblique-78"/>
     <use transform="translate(1229.471029 0.765625)" xlink:href="#DejaVuSans-2295"/>
     <use transform="translate(1352.224935 0.765625)" xlink:href="#DejaVuSans-2212"/>
     <use transform="translate(1455.496419 0.765625)" xlink:href="#DejaVuSans-31"/>
     <use transform="translate(1519.119466 0.765625)" xlink:href="#DejaVuSans-29"/>
     <use transform="translate(1577.61556 0.765625)" xlink:href="#DejaVuSans-2299"/>
     <use transform="translate(1680.887044 0.765625)" xlink:href="#DejaVuSans-28"/>
     <use transform="translate(1719.900716 0.765625)" xlink:href="#DejaVuSans-Oblique-78"/>
     <use transform="translate(1798.562826 0.765625)" xlink:href="#DejaVuSans-2295"/>
     <use transform="translate(1901.83431 0.765625)" xlink:href="#DejaVuSans-32"/>
     <use transform="translate(1965.457357 0.765625)" xlink:href="#DejaVuSans-29"/>
    </g>
   </g>
  </g>
 </g>
 <defs>
  <clipPath id="pccf3c38a3a">
   <rect height="270.173143" width="256.656623" x="33.037714" y="27.845143"/>
  </clipPath>
  <clipPath id="pd5ac55fd08">
   <rect height="270.173143" width="256.656623" x="341.025662" y="27.845143"/>
  </clipPath>
 </defs>
</svg>
