<?xml version="1.0" encoding="utf-8" standalone="no"?>
<!DOCTYPE svg PUBLIC "-//W3C//DTD SVG 1.1//EN"
  "http://www.w3.org/Graphics/SVG/1.1/DTD/svg11.dtd">
<svg height="345.6pt" version="1.1" viewBox="0 0 460.8 345.6" width="460.8pt" xmlns="http://www.w3.org/2000/svg" xmlns:xlink="http://www.w3.org/1999/xlink">
 <metadata>
  <rdf:RDF xmlns:cc="http://creativecommons.org/ns#" xmlns:dc="http://purl.org/dc/elements/1.1/" xmlns:rdf="http://www.w3.org/1999/02/22-rdf-syntax-ns#">
   <cc:Work>
    <dc:type rdf:resource="http://purl.org/dc/dcmitype/StillImage"/>
    <dc:date>2022-05-24T18:04:00.545086</dc:date>
    <dc:format>image/svg+xml</dc:format>
    <dc:creator>
     <cc:Agent>
      <dc:title>Matplotlib v3.4.0, https://matplotlib.org/</dc:title>
     </cc:Agent>
    </dc:creator>
   </cc:Work>
  </rdf:RDF>
 </metadata>
 <defs>
  <style type="text/css">*{stroke-linecap:butt;stroke-linejoin:round;}</style>
 </defs>
 <g id="figure_1">
  <g id="patch_1">
   <path d="M 0 345.6 
L 460.8 345.6 
L 460.8 0 
L 0 0 
z
" style="fill:#ffffff;"/>
  </g>
  <g id="axes_1">
   <g id="line2d_1">
    <defs>
     <path d="M 0 3 
C 0.795609 3 1.55874 2.683901 2.12132 2.12132 
C 2.683901 1.55874 3 0.795609 3 0 
C 3 -0.795609 2.683901 -1.55874 2.12132 -2.12132 
C 1.55874 -2.683901 0.795609 -3 0 -3 
C -0.795609 -3 -1.55874 -2.683901 -2.12132 -2.12132 
C -2.683901 -1.55874 -3 -0.795609 -3 0 
C -3 0.795609 -2.683901 1.55874 -2.12132 2.12132 
C -1.55874 2.683901 -0.795609 3 0 3 
z
" id="me4d5aca51e" style="stroke:#000000;"/>
    </defs>
    <g clip-path="url(#pfdaaf0bbbb)">
     <use style="stroke:#000000;" x="160.051721" xlink:href="#me4d5aca51e" y="243.148279"/>
    </g>
   </g>
   <g id="line2d_2">
    <g clip-path="url(#pfdaaf0bbbb)">
     <use style="stroke:#000000;" x="300.748279" xlink:href="#me4d5aca51e" y="196.249426"/>
    </g>
   </g>
   <g id="line2d_3">
    <g clip-path="url(#pfdaaf0bbbb)">
     <use style="stroke:#000000;" x="206.950574" xlink:href="#me4d5aca51e" y="196.249426"/>
    </g>
   </g>
   <g id="line2d_4">
    <path clip-path="url(#pfdaaf0bbbb)" d="M 206.950574 196.249426 
L 160.051721 243.148279 
" style="fill:none;stroke:#000000;stroke-linecap:square;stroke-width:1.5;"/>
   </g>
   <g id="line2d_5">
    <path clip-path="url(#pfdaaf0bbbb)" d="M 206.950574 196.249426 
L 300.748279 196.249426 
" style="fill:none;stroke:#000000;stroke-linecap:square;stroke-width:1.5;"/>
   </g>
   <g id="line2d_6">
    <g clip-path="url(#pfdaaf0bbbb)">
     <use style="stroke:#000000;" x="206.950574" xlink:href="#me4d5aca51e" y="102.451721"/>
    </g>
   </g>
   <g id="line2d_7">
    <path clip-path="url(#pfdaaf0bbbb)" d="M 206.950574 102.451721 
L 206.950574 196.249426 
" style="fill:none;stroke:#000000;stroke-linecap:square;stroke-width:1.5;"/>
   </g>
   <g id="line2d_8">
    <path clip-path="url(#pfdaaf0bbbb)" d="M 160.051721 243.148279 
L 160.051721 336.945984 
" style="fill:none;stroke:#000000;stroke-linecap:square;stroke-width:1.5;"/>
   </g>
   <g id="line2d_9">
    <path clip-path="url(#pfdaaf0bbbb)" d="M 160.051721 243.148279 
L 66.254016 243.148279 
" style="fill:none;stroke:#000000;stroke-linecap:square;stroke-width:1.5;"/>
   </g>
   <g id="line2d_10">
    <path clip-path="url(#pfdaaf0bbbb)" d="M 300.748279 196.249426 
L 300.748279 336.945984 
" style="fill:none;stroke:#000000;stroke-linecap:square;stroke-width:1.5;"/>
   </g>
   <g id="line2d_11">
    <path clip-path="url(#pfdaaf0bbbb)" d="M 300.748279 196.249426 
L 394.545984 102.451721 
" style="fill:none;stroke:#000000;stroke-linecap:square;stroke-width:1.5;"/>
   </g>
   <g id="line2d_12">
    <path clip-path="url(#pfdaaf0bbbb)" d="M 206.950574 102.451721 
L 66.254016 102.451721 
" style="fill:none;stroke:#000000;stroke-linecap:square;stroke-width:1.5;"/>
   </g>
   <g id="line2d_13">
    <path clip-path="url(#pfdaaf0bbbb)" d="M 206.950574 102.451721 
L 300.748279 8.654016 
" style="fill:none;stroke:#000000;stroke-linecap:square;stroke-width:1.5;"/>
   </g>
  </g>
 </g>
 <defs>
  <clipPath id="pfdaaf0bbbb">
   <rect height="345.6" width="460.8" x="0" y="0"/>
  </clipPath>
 </defs>
</svg>
