<?xml version="1.0" encoding="utf-8" standalone="no"?>
<!DOCTYPE svg PUBLIC "-//W3C//DTD SVG 1.1//EN"
  "http://www.w3.org/Graphics/SVG/1.1/DTD/svg11.dtd">
<svg height="199.44pt" version="1.1" viewBox="0 0 824.4 199.44" width="824.4pt" xmlns="http://www.w3.org/2000/svg" xmlns:xlink="http://www.w3.org/1999/xlink">
 <metadata>
  <rdf:RDF xmlns:cc="http://creativecommons.org/ns#" xmlns:dc="http://purl.org/dc/elements/1.1/" xmlns:rdf="http://www.w3.org/1999/02/22-rdf-syntax-ns#">
   <cc:Work>
    <dc:type rdf:resource="http://purl.org/dc/dcmitype/StillImage"/>
    <dc:date>2022-05-17T00:38:07.461680</dc:date>
    <dc:format>image/svg+xml</dc:format>
    <dc:creator>
     <cc:Agent>
      <dc:title>Matplotlib v3.4.0, https://matplotlib.org/</dc:title>
     </cc:Agent>
    </dc:creator>
   </cc:Work>
  </rdf:RDF>
 </metadata>
 <defs>
  <style type="text/css">*{stroke-linecap:butt;stroke-linejoin:round;}</style>
 </defs>
 <g id="figure_1">
  <g id="patch_1">
   <path d="M 0 199.44 
L 824.4 199.44 
L 824.4 0 
L 0 0 
z
" style="fill:#ffffff;"/>
  </g>
  <g id="axes_1">
   <g id="patch_2">
    <path d="M 103.05 177.5016 
L 290.964706 177.5016 
L 290.964706 23.9328 
L 103.05 23.9328 
z
" style="fill:#ffffff;"/>
   </g>
   <g id="matplotlib.axis_1">
    <g id="xtick_1">
     <g id="line2d_1">
      <defs>
       <path d="M 0 0 
L 0 3.5 
" id="m5f977bd99e" style="stroke:#000000;stroke-width:0.8;"/>
      </defs>
      <g>
       <use style="stroke:#000000;stroke-width:0.8;" x="128.674733" xlink:href="#m5f977bd99e" y="177.5016"/>
      </g>
     </g>
     <g id="text_1">
      <!-- −4 -->
      <g transform="translate(121.303639 192.100038)scale(0.1 -0.1)">
       <defs>
        <path d="M 678 2272 
L 4684 2272 
L 4684 1741 
L 678 1741 
L 678 2272 
z
" id="DejaVuSans-2212" transform="scale(0.015625)"/>
        <path d="M 2419 4116 
L 825 1625 
L 2419 1625 
L 2419 4116 
z
M 2253 4666 
L 3047 4666 
L 3047 1625 
L 3713 1625 
L 3713 1100 
L 3047 1100 
L 3047 0 
L 2419 0 
L 2419 1100 
L 313 1100 
L 313 1709 
L 2253 4666 
z
" id="DejaVuSans-34" transform="scale(0.015625)"/>
       </defs>
       <use xlink:href="#DejaVuSans-2212"/>
       <use x="83.789062" xlink:href="#DejaVuSans-34"/>
      </g>
     </g>
    </g>
    <g id="xtick_2">
     <g id="line2d_2">
      <g>
       <use style="stroke:#000000;stroke-width:0.8;" x="162.841043" xlink:href="#m5f977bd99e" y="177.5016"/>
      </g>
     </g>
     <g id="text_2">
      <!-- −2 -->
      <g transform="translate(155.469949 192.100038)scale(0.1 -0.1)">
       <defs>
        <path d="M 1228 531 
L 3431 531 
L 3431 0 
L 469 0 
L 469 531 
Q 828 903 1448 1529 
Q 2069 2156 2228 2338 
Q 2531 2678 2651 2914 
Q 2772 3150 2772 3378 
Q 2772 3750 2511 3984 
Q 2250 4219 1831 4219 
Q 1534 4219 1204 4116 
Q 875 4013 500 3803 
L 500 4441 
Q 881 4594 1212 4672 
Q 1544 4750 1819 4750 
Q 2544 4750 2975 4387 
Q 3406 4025 3406 3419 
Q 3406 3131 3298 2873 
Q 3191 2616 2906 2266 
Q 2828 2175 2409 1742 
Q 1991 1309 1228 531 
z
" id="DejaVuSans-32" transform="scale(0.015625)"/>
       </defs>
       <use xlink:href="#DejaVuSans-2212"/>
       <use x="83.789062" xlink:href="#DejaVuSans-32"/>
      </g>
     </g>
    </g>
    <g id="xtick_3">
     <g id="line2d_3">
      <g>
       <use style="stroke:#000000;stroke-width:0.8;" x="197.007353" xlink:href="#m5f977bd99e" y="177.5016"/>
      </g>
     </g>
     <g id="text_3">
      <!-- 0 -->
      <g transform="translate(193.826103 192.100038)scale(0.1 -0.1)">
       <defs>
        <path d="M 2034 4250 
Q 1547 4250 1301 3770 
Q 1056 3291 1056 2328 
Q 1056 1369 1301 889 
Q 1547 409 2034 409 
Q 2525 409 2770 889 
Q 3016 1369 3016 2328 
Q 3016 3291 2770 3770 
Q 2525 4250 2034 4250 
z
M 2034 4750 
Q 2819 4750 3233 4129 
Q 3647 3509 3647 2328 
Q 3647 1150 3233 529 
Q 2819 -91 2034 -91 
Q 1250 -91 836 529 
Q 422 1150 422 2328 
Q 422 3509 836 4129 
Q 1250 4750 2034 4750 
z
" id="DejaVuSans-30" transform="scale(0.015625)"/>
       </defs>
       <use xlink:href="#DejaVuSans-30"/>
      </g>
     </g>
    </g>
    <g id="xtick_4">
     <g id="line2d_4">
      <g>
       <use style="stroke:#000000;stroke-width:0.8;" x="231.173663" xlink:href="#m5f977bd99e" y="177.5016"/>
      </g>
     </g>
     <g id="text_4">
      <!-- 2 -->
      <g transform="translate(227.992413 192.100038)scale(0.1 -0.1)">
       <use xlink:href="#DejaVuSans-32"/>
      </g>
     </g>
    </g>
    <g id="xtick_5">
     <g id="line2d_5">
      <g>
       <use style="stroke:#000000;stroke-width:0.8;" x="265.339973" xlink:href="#m5f977bd99e" y="177.5016"/>
      </g>
     </g>
     <g id="text_5">
      <!-- 4 -->
      <g transform="translate(262.158723 192.100038)scale(0.1 -0.1)">
       <use xlink:href="#DejaVuSans-34"/>
      </g>
     </g>
    </g>
   </g>
   <g id="matplotlib.axis_2">
    <g id="ytick_1">
     <g id="line2d_6">
      <defs>
       <path d="M 0 0 
L -3.5 0 
" id="m7df6c210e3" style="stroke:#000000;stroke-width:0.8;"/>
      </defs>
      <g>
       <use style="stroke:#000000;stroke-width:0.8;" x="103.05" xlink:href="#m7df6c210e3" y="141.130042"/>
      </g>
     </g>
     <g id="text_6">
      <!-- 0 -->
      <g transform="translate(89.6875 144.929261)scale(0.1 -0.1)">
       <use xlink:href="#DejaVuSans-30"/>
      </g>
     </g>
    </g>
    <g id="ytick_2">
     <g id="line2d_7">
      <g>
       <use style="stroke:#000000;stroke-width:0.8;" x="103.05" xlink:href="#m7df6c210e3" y="100.7172"/>
      </g>
     </g>
     <g id="text_7">
      <!-- 1 -->
      <g transform="translate(89.6875 104.516419)scale(0.1 -0.1)">
       <defs>
        <path d="M 794 531 
L 1825 531 
L 1825 4091 
L 703 3866 
L 703 4441 
L 1819 4666 
L 2450 4666 
L 2450 531 
L 3481 531 
L 3481 0 
L 794 0 
L 794 531 
z
" id="DejaVuSans-31" transform="scale(0.015625)"/>
       </defs>
       <use xlink:href="#DejaVuSans-31"/>
      </g>
     </g>
    </g>
    <g id="ytick_3">
     <g id="line2d_8">
      <g>
       <use style="stroke:#000000;stroke-width:0.8;" x="103.05" xlink:href="#m7df6c210e3" y="60.304358"/>
      </g>
     </g>
     <g id="text_8">
      <!-- 2 -->
      <g transform="translate(89.6875 64.103577)scale(0.1 -0.1)">
       <use xlink:href="#DejaVuSans-32"/>
      </g>
     </g>
    </g>
   </g>
   <g id="line2d_9">
    <path clip-path="url(#p8a9a620a7c)" d="M 111.591578 140.859565 
L 113.317149 140.831029 
L 115.04272 140.799508 
L 116.768291 140.764694 
L 118.493862 140.72625 
L 120.219434 140.683805 
L 121.945005 140.636954 
L 123.670576 140.585252 
L 125.396147 140.528209 
L 127.121719 140.465294 
L 128.84729 140.395923 
L 130.572861 140.31946 
L 132.298432 140.235213 
L 134.024003 140.142428 
L 135.749575 140.040287 
L 137.475146 139.927905 
L 139.200717 139.804323 
L 140.926288 139.668512 
L 142.65186 139.51936 
L 144.377431 139.355681 
L 146.103002 139.176206 
L 147.828573 138.979587 
L 149.554144 138.764399 
L 151.279716 138.529143 
L 153.005287 138.272247 
L 154.730858 137.992084 
L 156.456429 137.686973 
L 158.182 137.3552 
L 159.907572 136.995032 
L 161.633143 136.604745 
L 163.358714 136.182644 
L 165.084285 135.727098 
L 166.809857 135.236577 
L 168.535428 134.70969 
L 170.260999 134.145229 
L 171.98657 133.54222 
L 173.712141 132.899969 
L 175.437713 132.218116 
L 177.163284 131.496682 
L 178.888855 130.736116 
L 180.614426 129.937338 
L 182.339998 129.10177 
L 184.065569 128.231361 
L 185.79114 127.328591 
L 187.516711 126.396472 
L 189.242282 125.43852 
L 190.967854 124.458719 
L 192.693425 123.461465 
L 194.418996 122.451489 
L 196.144567 121.433776 
L 197.870139 120.413466 
L 199.59571 119.395753 
L 201.321281 118.385777 
L 203.046852 117.388523 
L 204.772423 116.408722 
L 206.497995 115.45077 
L 208.223566 114.518651 
L 209.949137 113.615881 
L 211.674708 112.745472 
L 213.40028 111.909904 
L 215.125851 111.111126 
L 216.851422 110.35056 
L 218.576993 109.629126 
L 220.302564 108.947273 
L 222.028136 108.305022 
L 223.753707 107.702013 
L 225.479278 107.137552 
L 227.204849 106.610665 
L 228.930421 106.120144 
L 230.655992 105.664598 
L 232.381563 105.242497 
L 234.107134 104.85221 
L 235.832705 104.492043 
L 237.558277 104.160269 
L 239.283848 103.855158 
L 241.009419 103.574995 
L 242.73499 103.318099 
L 244.460561 103.082843 
L 246.186133 102.867655 
L 247.911704 102.671037 
L 249.637275 102.491561 
L 251.362846 102.327882 
L 253.088418 102.17873 
L 254.813989 102.042919 
L 256.53956 101.919338 
L 258.265131 101.806955 
L 259.990702 101.704815 
L 261.716274 101.612029 
L 263.441845 101.527782 
L 265.167416 101.451319 
L 266.892987 101.381948 
L 268.618559 101.319033 
L 270.34413 101.26199 
L 272.069701 101.210288 
L 273.795272 101.163437 
L 275.520843 101.120993 
L 277.246415 101.082548 
L 278.971986 101.047734 
L 280.697557 101.016213 
L 282.423128 100.987677 
" style="fill:none;stroke:#1f77b4;stroke-linecap:square;stroke-width:1.5;"/>
   </g>
   <g id="patch_3">
    <path d="M 103.05 177.5016 
L 103.05 23.9328 
" style="fill:none;stroke:#000000;stroke-linecap:square;stroke-linejoin:miter;stroke-width:0.8;"/>
   </g>
   <g id="patch_4">
    <path d="M 290.964706 177.5016 
L 290.964706 23.9328 
" style="fill:none;stroke:#000000;stroke-linecap:square;stroke-linejoin:miter;stroke-width:0.8;"/>
   </g>
   <g id="patch_5">
    <path d="M 103.05 177.5016 
L 290.964706 177.5016 
" style="fill:none;stroke:#000000;stroke-linecap:square;stroke-linejoin:miter;stroke-width:0.8;"/>
   </g>
   <g id="patch_6">
    <path d="M 103.05 23.9328 
L 290.964706 23.9328 
" style="fill:none;stroke:#000000;stroke-linecap:square;stroke-linejoin:miter;stroke-width:0.8;"/>
   </g>
   <g id="text_9">
    <!-- sigmoid -->
    <g transform="translate(173.414228 17.9328)scale(0.12 -0.12)">
     <defs>
      <path d="M 2834 3397 
L 2834 2853 
Q 2591 2978 2328 3040 
Q 2066 3103 1784 3103 
Q 1356 3103 1142 2972 
Q 928 2841 928 2578 
Q 928 2378 1081 2264 
Q 1234 2150 1697 2047 
L 1894 2003 
Q 2506 1872 2764 1633 
Q 3022 1394 3022 966 
Q 3022 478 2636 193 
Q 2250 -91 1575 -91 
Q 1294 -91 989 -36 
Q 684 19 347 128 
L 347 722 
Q 666 556 975 473 
Q 1284 391 1588 391 
Q 1994 391 2212 530 
Q 2431 669 2431 922 
Q 2431 1156 2273 1281 
Q 2116 1406 1581 1522 
L 1381 1569 
Q 847 1681 609 1914 
Q 372 2147 372 2553 
Q 372 3047 722 3315 
Q 1072 3584 1716 3584 
Q 2034 3584 2315 3537 
Q 2597 3491 2834 3397 
z
" id="DejaVuSans-73" transform="scale(0.015625)"/>
      <path d="M 603 3500 
L 1178 3500 
L 1178 0 
L 603 0 
L 603 3500 
z
M 603 4863 
L 1178 4863 
L 1178 4134 
L 603 4134 
L 603 4863 
z
" id="DejaVuSans-69" transform="scale(0.015625)"/>
      <path d="M 2906 1791 
Q 2906 2416 2648 2759 
Q 2391 3103 1925 3103 
Q 1463 3103 1205 2759 
Q 947 2416 947 1791 
Q 947 1169 1205 825 
Q 1463 481 1925 481 
Q 2391 481 2648 825 
Q 2906 1169 2906 1791 
z
M 3481 434 
Q 3481 -459 3084 -895 
Q 2688 -1331 1869 -1331 
Q 1566 -1331 1297 -1286 
Q 1028 -1241 775 -1147 
L 775 -588 
Q 1028 -725 1275 -790 
Q 1522 -856 1778 -856 
Q 2344 -856 2625 -561 
Q 2906 -266 2906 331 
L 2906 616 
Q 2728 306 2450 153 
Q 2172 0 1784 0 
Q 1141 0 747 490 
Q 353 981 353 1791 
Q 353 2603 747 3093 
Q 1141 3584 1784 3584 
Q 2172 3584 2450 3431 
Q 2728 3278 2906 2969 
L 2906 3500 
L 3481 3500 
L 3481 434 
z
" id="DejaVuSans-67" transform="scale(0.015625)"/>
      <path d="M 3328 2828 
Q 3544 3216 3844 3400 
Q 4144 3584 4550 3584 
Q 5097 3584 5394 3201 
Q 5691 2819 5691 2113 
L 5691 0 
L 5113 0 
L 5113 2094 
Q 5113 2597 4934 2840 
Q 4756 3084 4391 3084 
Q 3944 3084 3684 2787 
Q 3425 2491 3425 1978 
L 3425 0 
L 2847 0 
L 2847 2094 
Q 2847 2600 2669 2842 
Q 2491 3084 2119 3084 
Q 1678 3084 1418 2786 
Q 1159 2488 1159 1978 
L 1159 0 
L 581 0 
L 581 3500 
L 1159 3500 
L 1159 2956 
Q 1356 3278 1631 3431 
Q 1906 3584 2284 3584 
Q 2666 3584 2933 3390 
Q 3200 3197 3328 2828 
z
" id="DejaVuSans-6d" transform="scale(0.015625)"/>
      <path d="M 1959 3097 
Q 1497 3097 1228 2736 
Q 959 2375 959 1747 
Q 959 1119 1226 758 
Q 1494 397 1959 397 
Q 2419 397 2687 759 
Q 2956 1122 2956 1747 
Q 2956 2369 2687 2733 
Q 2419 3097 1959 3097 
z
M 1959 3584 
Q 2709 3584 3137 3096 
Q 3566 2609 3566 1747 
Q 3566 888 3137 398 
Q 2709 -91 1959 -91 
Q 1206 -91 779 398 
Q 353 888 353 1747 
Q 353 2609 779 3096 
Q 1206 3584 1959 3584 
z
" id="DejaVuSans-6f" transform="scale(0.015625)"/>
      <path d="M 2906 2969 
L 2906 4863 
L 3481 4863 
L 3481 0 
L 2906 0 
L 2906 525 
Q 2725 213 2448 61 
Q 2172 -91 1784 -91 
Q 1150 -91 751 415 
Q 353 922 353 1747 
Q 353 2572 751 3078 
Q 1150 3584 1784 3584 
Q 2172 3584 2448 3432 
Q 2725 3281 2906 2969 
z
M 947 1747 
Q 947 1113 1208 752 
Q 1469 391 1925 391 
Q 2381 391 2643 752 
Q 2906 1113 2906 1747 
Q 2906 2381 2643 2742 
Q 2381 3103 1925 3103 
Q 1469 3103 1208 2742 
Q 947 2381 947 1747 
z
" id="DejaVuSans-64" transform="scale(0.015625)"/>
     </defs>
     <use xlink:href="#DejaVuSans-73"/>
     <use x="52.099609" xlink:href="#DejaVuSans-69"/>
     <use x="79.882812" xlink:href="#DejaVuSans-67"/>
     <use x="143.359375" xlink:href="#DejaVuSans-6d"/>
     <use x="240.771484" xlink:href="#DejaVuSans-6f"/>
     <use x="301.953125" xlink:href="#DejaVuSans-69"/>
     <use x="329.736328" xlink:href="#DejaVuSans-64"/>
    </g>
   </g>
  </g>
  <g id="axes_2">
   <g id="patch_7">
    <path d="M 328.547647 177.5016 
L 516.462353 177.5016 
L 516.462353 23.9328 
L 328.547647 23.9328 
z
" style="fill:#ffffff;"/>
   </g>
   <g id="matplotlib.axis_3">
    <g id="xtick_6">
     <g id="line2d_10">
      <g>
       <use style="stroke:#000000;stroke-width:0.8;" x="337.089225" xlink:href="#m5f977bd99e" y="177.5016"/>
      </g>
     </g>
     <g id="text_10">
      <!-- −3 -->
      <g transform="translate(329.718131 192.100038)scale(0.1 -0.1)">
       <defs>
        <path d="M 2597 2516 
Q 3050 2419 3304 2112 
Q 3559 1806 3559 1356 
Q 3559 666 3084 287 
Q 2609 -91 1734 -91 
Q 1441 -91 1130 -33 
Q 819 25 488 141 
L 488 750 
Q 750 597 1062 519 
Q 1375 441 1716 441 
Q 2309 441 2620 675 
Q 2931 909 2931 1356 
Q 2931 1769 2642 2001 
Q 2353 2234 1838 2234 
L 1294 2234 
L 1294 2753 
L 1863 2753 
Q 2328 2753 2575 2939 
Q 2822 3125 2822 3475 
Q 2822 3834 2567 4026 
Q 2313 4219 1838 4219 
Q 1578 4219 1281 4162 
Q 984 4106 628 3988 
L 628 4550 
Q 988 4650 1302 4700 
Q 1616 4750 1894 4750 
Q 2613 4750 3031 4423 
Q 3450 4097 3450 3541 
Q 3450 3153 3228 2886 
Q 3006 2619 2597 2516 
z
" id="DejaVuSans-33" transform="scale(0.015625)"/>
       </defs>
       <use xlink:href="#DejaVuSans-2212"/>
       <use x="83.789062" xlink:href="#DejaVuSans-33"/>
      </g>
     </g>
    </g>
    <g id="xtick_7">
     <g id="line2d_11">
      <g>
       <use style="stroke:#000000;stroke-width:0.8;" x="371.255535" xlink:href="#m5f977bd99e" y="177.5016"/>
      </g>
     </g>
     <g id="text_11">
      <!-- −2 -->
      <g transform="translate(363.884441 192.100038)scale(0.1 -0.1)">
       <use xlink:href="#DejaVuSans-2212"/>
       <use x="83.789062" xlink:href="#DejaVuSans-32"/>
      </g>
     </g>
    </g>
    <g id="xtick_8">
     <g id="line2d_12">
      <g>
       <use style="stroke:#000000;stroke-width:0.8;" x="405.421845" xlink:href="#m5f977bd99e" y="177.5016"/>
      </g>
     </g>
     <g id="text_12">
      <!-- −1 -->
      <g transform="translate(398.050751 192.100038)scale(0.1 -0.1)">
       <use xlink:href="#DejaVuSans-2212"/>
       <use x="83.789062" xlink:href="#DejaVuSans-31"/>
      </g>
     </g>
    </g>
    <g id="xtick_9">
     <g id="line2d_13">
      <g>
       <use style="stroke:#000000;stroke-width:0.8;" x="439.588155" xlink:href="#m5f977bd99e" y="177.5016"/>
      </g>
     </g>
     <g id="text_13">
      <!-- 0 -->
      <g transform="translate(436.406905 192.100038)scale(0.1 -0.1)">
       <use xlink:href="#DejaVuSans-30"/>
      </g>
     </g>
    </g>
    <g id="xtick_10">
     <g id="line2d_14">
      <g>
       <use style="stroke:#000000;stroke-width:0.8;" x="473.754465" xlink:href="#m5f977bd99e" y="177.5016"/>
      </g>
     </g>
     <g id="text_14">
      <!-- 1 -->
      <g transform="translate(470.573215 192.100038)scale(0.1 -0.1)">
       <use xlink:href="#DejaVuSans-31"/>
      </g>
     </g>
    </g>
    <g id="xtick_11">
     <g id="line2d_15">
      <g>
       <use style="stroke:#000000;stroke-width:0.8;" x="507.920775" xlink:href="#m5f977bd99e" y="177.5016"/>
      </g>
     </g>
     <g id="text_15">
      <!-- 2 -->
      <g transform="translate(504.739525 192.100038)scale(0.1 -0.1)">
       <use xlink:href="#DejaVuSans-32"/>
      </g>
     </g>
    </g>
   </g>
   <g id="matplotlib.axis_4">
    <g id="ytick_4">
     <g id="line2d_16">
      <g>
       <use style="stroke:#000000;stroke-width:0.8;" x="328.547647" xlink:href="#m7df6c210e3" y="141.130042"/>
      </g>
     </g>
     <g id="text_16">
      <!-- 0 -->
      <g transform="translate(315.185147 144.929261)scale(0.1 -0.1)">
       <use xlink:href="#DejaVuSans-30"/>
      </g>
     </g>
    </g>
    <g id="ytick_5">
     <g id="line2d_17">
      <g>
       <use style="stroke:#000000;stroke-width:0.8;" x="328.547647" xlink:href="#m7df6c210e3" y="100.7172"/>
      </g>
     </g>
     <g id="text_17">
      <!-- 1 -->
      <g transform="translate(315.185147 104.516419)scale(0.1 -0.1)">
       <use xlink:href="#DejaVuSans-31"/>
      </g>
     </g>
    </g>
    <g id="ytick_6">
     <g id="line2d_18">
      <g>
       <use style="stroke:#000000;stroke-width:0.8;" x="328.547647" xlink:href="#m7df6c210e3" y="60.304358"/>
      </g>
     </g>
     <g id="text_18">
      <!-- 2 -->
      <g transform="translate(315.185147 64.103577)scale(0.1 -0.1)">
       <use xlink:href="#DejaVuSans-32"/>
      </g>
     </g>
    </g>
   </g>
   <g id="line2d_19">
    <path clip-path="url(#p1415ae20ee)" d="M 337.089225 141.130042 
L 338.814796 141.130042 
L 340.540367 141.130042 
L 342.265938 141.130042 
L 343.991509 141.130042 
L 345.717081 141.130042 
L 347.442652 141.130042 
L 349.168223 141.130042 
L 350.893794 141.130042 
L 352.619366 141.130042 
L 354.344937 141.130042 
L 356.070508 141.130042 
L 357.796079 141.130042 
L 359.52165 141.130042 
L 361.247222 141.130042 
L 362.972793 141.130042 
L 364.698364 141.130042 
L 366.423935 141.130042 
L 368.149507 141.130042 
L 369.875078 141.130042 
L 371.600649 141.130042 
L 373.32622 141.130042 
L 375.051791 141.130042 
L 376.777363 141.130042 
L 378.502934 141.130042 
L 380.228505 141.130042 
L 381.954076 141.130042 
L 383.679648 141.130042 
L 385.405219 141.130042 
L 387.13079 141.130042 
L 388.856361 141.130042 
L 390.581932 141.130042 
L 392.307504 141.130042 
L 394.033075 141.130042 
L 395.758646 141.130042 
L 397.484217 141.130042 
L 399.209789 141.130042 
L 400.93536 141.130042 
L 402.660931 141.130042 
L 404.386502 141.130042 
L 406.112073 141.130042 
L 407.837645 141.130042 
L 409.563216 141.130042 
L 411.288787 141.130042 
L 413.014358 141.130042 
L 414.73993 141.130042 
L 416.465501 141.130042 
L 418.191072 141.130042 
L 419.916643 141.130042 
L 421.642214 141.130042 
L 423.367786 141.130042 
L 425.093357 141.130042 
L 426.818928 141.130042 
L 428.544499 141.130042 
L 430.27007 141.130042 
L 431.995642 141.130042 
L 433.721213 141.130042 
L 435.446784 141.130042 
L 437.172355 141.130042 
L 438.897927 141.130042 
L 440.623498 139.905411 
L 442.349069 137.864358 
L 444.07464 135.823305 
L 445.800211 133.782253 
L 447.525783 131.7412 
L 449.251354 129.700147 
L 450.976925 127.659095 
L 452.702496 125.618042 
L 454.428068 123.576989 
L 456.153639 121.535937 
L 457.87921 119.494884 
L 459.604781 117.453832 
L 461.330352 115.412779 
L 463.055924 113.371726 
L 464.781495 111.330674 
L 466.507066 109.289621 
L 468.232637 107.248568 
L 469.958209 105.207516 
L 471.68378 103.166463 
L 473.409351 101.125411 
L 475.134922 99.084358 
L 476.860493 97.043305 
L 478.586065 95.002253 
L 480.311636 92.9612 
L 482.037207 90.920147 
L 483.762778 88.879095 
L 485.48835 86.838042 
L 487.213921 84.796989 
L 488.939492 82.755937 
L 490.665063 80.714884 
L 492.390634 78.673832 
L 494.116206 76.632779 
L 495.841777 74.591726 
L 497.567348 72.550674 
L 499.292919 70.509621 
L 501.018491 68.468568 
L 502.744062 66.427516 
L 504.469633 64.386463 
L 506.195204 62.345411 
L 507.920775 60.304358 
" style="fill:none;stroke:#1f77b4;stroke-linecap:square;stroke-width:1.5;"/>
   </g>
   <g id="patch_8">
    <path d="M 328.547647 177.5016 
L 328.547647 23.9328 
" style="fill:none;stroke:#000000;stroke-linecap:square;stroke-linejoin:miter;stroke-width:0.8;"/>
   </g>
   <g id="patch_9">
    <path d="M 516.462353 177.5016 
L 516.462353 23.9328 
" style="fill:none;stroke:#000000;stroke-linecap:square;stroke-linejoin:miter;stroke-width:0.8;"/>
   </g>
   <g id="patch_10">
    <path d="M 328.547647 177.5016 
L 516.462353 177.5016 
" style="fill:none;stroke:#000000;stroke-linecap:square;stroke-linejoin:miter;stroke-width:0.8;"/>
   </g>
   <g id="patch_11">
    <path d="M 328.547647 23.9328 
L 516.462353 23.9328 
" style="fill:none;stroke:#000000;stroke-linecap:square;stroke-linejoin:miter;stroke-width:0.8;"/>
   </g>
   <g id="text_19">
    <!-- ReLU -->
    <g transform="translate(407.479688 17.9328)scale(0.12 -0.12)">
     <defs>
      <path d="M 2841 2188 
Q 3044 2119 3236 1894 
Q 3428 1669 3622 1275 
L 4263 0 
L 3584 0 
L 2988 1197 
Q 2756 1666 2539 1819 
Q 2322 1972 1947 1972 
L 1259 1972 
L 1259 0 
L 628 0 
L 628 4666 
L 2053 4666 
Q 2853 4666 3247 4331 
Q 3641 3997 3641 3322 
Q 3641 2881 3436 2590 
Q 3231 2300 2841 2188 
z
M 1259 4147 
L 1259 2491 
L 2053 2491 
Q 2509 2491 2742 2702 
Q 2975 2913 2975 3322 
Q 2975 3731 2742 3939 
Q 2509 4147 2053 4147 
L 1259 4147 
z
" id="DejaVuSans-52" transform="scale(0.015625)"/>
      <path d="M 3597 1894 
L 3597 1613 
L 953 1613 
Q 991 1019 1311 708 
Q 1631 397 2203 397 
Q 2534 397 2845 478 
Q 3156 559 3463 722 
L 3463 178 
Q 3153 47 2828 -22 
Q 2503 -91 2169 -91 
Q 1331 -91 842 396 
Q 353 884 353 1716 
Q 353 2575 817 3079 
Q 1281 3584 2069 3584 
Q 2775 3584 3186 3129 
Q 3597 2675 3597 1894 
z
M 3022 2063 
Q 3016 2534 2758 2815 
Q 2500 3097 2075 3097 
Q 1594 3097 1305 2825 
Q 1016 2553 972 2059 
L 3022 2063 
z
" id="DejaVuSans-65" transform="scale(0.015625)"/>
      <path d="M 628 4666 
L 1259 4666 
L 1259 531 
L 3531 531 
L 3531 0 
L 628 0 
L 628 4666 
z
" id="DejaVuSans-4c" transform="scale(0.015625)"/>
      <path d="M 556 4666 
L 1191 4666 
L 1191 1831 
Q 1191 1081 1462 751 
Q 1734 422 2344 422 
Q 2950 422 3222 751 
Q 3494 1081 3494 1831 
L 3494 4666 
L 4128 4666 
L 4128 1753 
Q 4128 841 3676 375 
Q 3225 -91 2344 -91 
Q 1459 -91 1007 375 
Q 556 841 556 1753 
L 556 4666 
z
" id="DejaVuSans-55" transform="scale(0.015625)"/>
     </defs>
     <use xlink:href="#DejaVuSans-52"/>
     <use x="64.982422" xlink:href="#DejaVuSans-65"/>
     <use x="126.505859" xlink:href="#DejaVuSans-4c"/>
     <use x="177.21875" xlink:href="#DejaVuSans-55"/>
    </g>
   </g>
  </g>
  <g id="axes_3">
   <g id="patch_12">
    <path d="M 554.045294 177.5016 
L 741.96 177.5016 
L 741.96 23.9328 
L 554.045294 23.9328 
z
" style="fill:#ffffff;"/>
   </g>
   <g id="matplotlib.axis_5">
    <g id="xtick_12">
     <g id="line2d_20">
      <g>
       <use style="stroke:#000000;stroke-width:0.8;" x="562.586872" xlink:href="#m5f977bd99e" y="177.5016"/>
      </g>
     </g>
     <g id="text_20">
      <!-- −3 -->
      <g transform="translate(555.215778 192.100038)scale(0.1 -0.1)">
       <use xlink:href="#DejaVuSans-2212"/>
       <use x="83.789062" xlink:href="#DejaVuSans-33"/>
      </g>
     </g>
    </g>
    <g id="xtick_13">
     <g id="line2d_21">
      <g>
       <use style="stroke:#000000;stroke-width:0.8;" x="596.753182" xlink:href="#m5f977bd99e" y="177.5016"/>
      </g>
     </g>
     <g id="text_21">
      <!-- −2 -->
      <g transform="translate(589.382088 192.100038)scale(0.1 -0.1)">
       <use xlink:href="#DejaVuSans-2212"/>
       <use x="83.789062" xlink:href="#DejaVuSans-32"/>
      </g>
     </g>
    </g>
    <g id="xtick_14">
     <g id="line2d_22">
      <g>
       <use style="stroke:#000000;stroke-width:0.8;" x="630.919492" xlink:href="#m5f977bd99e" y="177.5016"/>
      </g>
     </g>
     <g id="text_22">
      <!-- −1 -->
      <g transform="translate(623.548398 192.100038)scale(0.1 -0.1)">
       <use xlink:href="#DejaVuSans-2212"/>
       <use x="83.789062" xlink:href="#DejaVuSans-31"/>
      </g>
     </g>
    </g>
    <g id="xtick_15">
     <g id="line2d_23">
      <g>
       <use style="stroke:#000000;stroke-width:0.8;" x="665.085802" xlink:href="#m5f977bd99e" y="177.5016"/>
      </g>
     </g>
     <g id="text_23">
      <!-- 0 -->
      <g transform="translate(661.904552 192.100038)scale(0.1 -0.1)">
       <use xlink:href="#DejaVuSans-30"/>
      </g>
     </g>
    </g>
    <g id="xtick_16">
     <g id="line2d_24">
      <g>
       <use style="stroke:#000000;stroke-width:0.8;" x="699.252112" xlink:href="#m5f977bd99e" y="177.5016"/>
      </g>
     </g>
     <g id="text_24">
      <!-- 1 -->
      <g transform="translate(696.070862 192.100038)scale(0.1 -0.1)">
       <use xlink:href="#DejaVuSans-31"/>
      </g>
     </g>
    </g>
    <g id="xtick_17">
     <g id="line2d_25">
      <g>
       <use style="stroke:#000000;stroke-width:0.8;" x="733.418422" xlink:href="#m5f977bd99e" y="177.5016"/>
      </g>
     </g>
     <g id="text_25">
      <!-- 2 -->
      <g transform="translate(730.237172 192.100038)scale(0.1 -0.1)">
       <use xlink:href="#DejaVuSans-32"/>
      </g>
     </g>
    </g>
   </g>
   <g id="matplotlib.axis_6">
    <g id="ytick_7">
     <g id="line2d_26">
      <g>
       <use style="stroke:#000000;stroke-width:0.8;" x="554.045294" xlink:href="#m7df6c210e3" y="141.130042"/>
      </g>
     </g>
     <g id="text_26">
      <!-- 0 -->
      <g transform="translate(540.682794 144.929261)scale(0.1 -0.1)">
       <use xlink:href="#DejaVuSans-30"/>
      </g>
     </g>
    </g>
    <g id="ytick_8">
     <g id="line2d_27">
      <g>
       <use style="stroke:#000000;stroke-width:0.8;" x="554.045294" xlink:href="#m7df6c210e3" y="100.7172"/>
      </g>
     </g>
     <g id="text_27">
      <!-- 1 -->
      <g transform="translate(540.682794 104.516419)scale(0.1 -0.1)">
       <use xlink:href="#DejaVuSans-31"/>
      </g>
     </g>
    </g>
    <g id="ytick_9">
     <g id="line2d_28">
      <g>
       <use style="stroke:#000000;stroke-width:0.8;" x="554.045294" xlink:href="#m7df6c210e3" y="60.304358"/>
      </g>
     </g>
     <g id="text_28">
      <!-- 2 -->
      <g transform="translate(540.682794 64.103577)scale(0.1 -0.1)">
       <use xlink:href="#DejaVuSans-32"/>
      </g>
     </g>
    </g>
   </g>
   <g id="line2d_29">
    <path clip-path="url(#pd7c7c182d8)" d="M 562.586872 153.253895 
L 564.312443 153.049789 
L 566.038014 152.845684 
L 567.763585 152.641579 
L 569.489157 152.437474 
L 571.214728 152.233368 
L 572.940299 152.029263 
L 574.66587 151.825158 
L 576.391441 151.621053 
L 578.117013 151.416947 
L 579.842584 151.212842 
L 581.568155 151.008737 
L 583.293726 150.804632 
L 585.019298 150.600526 
L 586.744869 150.396421 
L 588.47044 150.192316 
L 590.196011 149.988211 
L 591.921582 149.784105 
L 593.647154 149.58 
L 595.372725 149.375895 
L 597.098296 149.171789 
L 598.823867 148.967684 
L 600.549439 148.763579 
L 602.27501 148.559474 
L 604.000581 148.355368 
L 605.726152 148.151263 
L 607.451723 147.947158 
L 609.177295 147.743053 
L 610.902866 147.538947 
L 612.628437 147.334842 
L 614.354008 147.130737 
L 616.079579 146.926632 
L 617.805151 146.722526 
L 619.530722 146.518421 
L 621.256293 146.314316 
L 622.981864 146.110211 
L 624.707436 145.906105 
L 626.433007 145.702 
L 628.158578 145.497895 
L 629.884149 145.293789 
L 631.60972 145.089684 
L 633.335292 144.885579 
L 635.060863 144.681474 
L 636.786434 144.477368 
L 638.512005 144.273263 
L 640.237577 144.069158 
L 641.963148 143.865053 
L 643.688719 143.660947 
L 645.41429 143.456842 
L 647.139861 143.252737 
L 648.865433 143.048632 
L 650.591004 142.844526 
L 652.316575 142.640421 
L 654.042146 142.436316 
L 655.767718 142.232211 
L 657.493289 142.028105 
L 659.21886 141.824 
L 660.944431 141.619895 
L 662.670002 141.415789 
L 664.395574 141.211684 
L 666.121145 139.905411 
L 667.846716 137.864358 
L 669.572287 135.823305 
L 671.297859 133.782253 
L 673.02343 131.7412 
L 674.749001 129.700147 
L 676.474572 127.659095 
L 678.200143 125.618042 
L 679.925715 123.576989 
L 681.651286 121.535937 
L 683.376857 119.494884 
L 685.102428 117.453832 
L 686.828 115.412779 
L 688.553571 113.371726 
L 690.279142 111.330674 
L 692.004713 109.289621 
L 693.730284 107.248568 
L 695.455856 105.207516 
L 697.181427 103.166463 
L 698.906998 101.125411 
L 700.632569 99.084358 
L 702.35814 97.043305 
L 704.083712 95.002253 
L 705.809283 92.9612 
L 707.534854 90.920147 
L 709.260425 88.879095 
L 710.985997 86.838042 
L 712.711568 84.796989 
L 714.437139 82.755937 
L 716.16271 80.714884 
L 717.888281 78.673832 
L 719.613853 76.632779 
L 721.339424 74.591726 
L 723.064995 72.550674 
L 724.790566 70.509621 
L 726.516138 68.468568 
L 728.241709 66.427516 
L 729.96728 64.386463 
L 731.692851 62.345411 
L 733.418422 60.304358 
" style="fill:none;stroke:#1f77b4;stroke-linecap:square;stroke-width:1.5;"/>
   </g>
   <g id="patch_13">
    <path d="M 554.045294 177.5016 
L 554.045294 23.9328 
" style="fill:none;stroke:#000000;stroke-linecap:square;stroke-linejoin:miter;stroke-width:0.8;"/>
   </g>
   <g id="patch_14">
    <path d="M 741.96 177.5016 
L 741.96 23.9328 
" style="fill:none;stroke:#000000;stroke-linecap:square;stroke-linejoin:miter;stroke-width:0.8;"/>
   </g>
   <g id="patch_15">
    <path d="M 554.045294 177.5016 
L 741.96 177.5016 
" style="fill:none;stroke:#000000;stroke-linecap:square;stroke-linejoin:miter;stroke-width:0.8;"/>
   </g>
   <g id="patch_16">
    <path d="M 554.045294 23.9328 
L 741.96 23.9328 
" style="fill:none;stroke:#000000;stroke-linecap:square;stroke-linejoin:miter;stroke-width:0.8;"/>
   </g>
   <g id="text_29">
    <!-- Leaky ReLU -->
    <g transform="translate(613.65546 17.9328)scale(0.12 -0.12)">
     <defs>
      <path d="M 2194 1759 
Q 1497 1759 1228 1600 
Q 959 1441 959 1056 
Q 959 750 1161 570 
Q 1363 391 1709 391 
Q 2188 391 2477 730 
Q 2766 1069 2766 1631 
L 2766 1759 
L 2194 1759 
z
M 3341 1997 
L 3341 0 
L 2766 0 
L 2766 531 
Q 2569 213 2275 61 
Q 1981 -91 1556 -91 
Q 1019 -91 701 211 
Q 384 513 384 1019 
Q 384 1609 779 1909 
Q 1175 2209 1959 2209 
L 2766 2209 
L 2766 2266 
Q 2766 2663 2505 2880 
Q 2244 3097 1772 3097 
Q 1472 3097 1187 3025 
Q 903 2953 641 2809 
L 641 3341 
Q 956 3463 1253 3523 
Q 1550 3584 1831 3584 
Q 2591 3584 2966 3190 
Q 3341 2797 3341 1997 
z
" id="DejaVuSans-61" transform="scale(0.015625)"/>
      <path d="M 581 4863 
L 1159 4863 
L 1159 1991 
L 2875 3500 
L 3609 3500 
L 1753 1863 
L 3688 0 
L 2938 0 
L 1159 1709 
L 1159 0 
L 581 0 
L 581 4863 
z
" id="DejaVuSans-6b" transform="scale(0.015625)"/>
      <path d="M 2059 -325 
Q 1816 -950 1584 -1140 
Q 1353 -1331 966 -1331 
L 506 -1331 
L 506 -850 
L 844 -850 
Q 1081 -850 1212 -737 
Q 1344 -625 1503 -206 
L 1606 56 
L 191 3500 
L 800 3500 
L 1894 763 
L 2988 3500 
L 3597 3500 
L 2059 -325 
z
" id="DejaVuSans-79" transform="scale(0.015625)"/>
      <path id="DejaVuSans-20" transform="scale(0.015625)"/>
     </defs>
     <use xlink:href="#DejaVuSans-4c"/>
     <use x="53.962891" xlink:href="#DejaVuSans-65"/>
     <use x="115.486328" xlink:href="#DejaVuSans-61"/>
     <use x="176.765625" xlink:href="#DejaVuSans-6b"/>
     <use x="231.050781" xlink:href="#DejaVuSans-79"/>
     <use x="290.230469" xlink:href="#DejaVuSans-20"/>
     <use x="322.017578" xlink:href="#DejaVuSans-52"/>
     <use x="387" xlink:href="#DejaVuSans-65"/>
     <use x="448.523438" xlink:href="#DejaVuSans-4c"/>
     <use x="499.236328" xlink:href="#DejaVuSans-55"/>
    </g>
   </g>
  </g>
 </g>
 <defs>
  <clipPath id="p8a9a620a7c">
   <rect height="153.5688" width="187.914706" x="103.05" y="23.9328"/>
  </clipPath>
  <clipPath id="p1415ae20ee">
   <rect height="153.5688" width="187.914706" x="328.547647" y="23.9328"/>
  </clipPath>
  <clipPath id="pd7c7c182d8">
   <rect height="153.5688" width="187.914706" x="554.045294" y="23.9328"/>
  </clipPath>
 </defs>
</svg>
