<?xml version="1.0" encoding="utf-8" standalone="no"?>
<!DOCTYPE svg PUBLIC "-//W3C//DTD SVG 1.1//EN"
  "http://www.w3.org/Graphics/SVG/1.1/DTD/svg11.dtd">
<svg height="247.68pt" version="1.1" viewBox="0 0 735.84 247.68" width="735.84pt" xmlns="http://www.w3.org/2000/svg" xmlns:xlink="http://www.w3.org/1999/xlink">
 <metadata>
  <rdf:RDF xmlns:cc="http://creativecommons.org/ns#" xmlns:dc="http://purl.org/dc/elements/1.1/" xmlns:rdf="http://www.w3.org/1999/02/22-rdf-syntax-ns#">
   <cc:Work>
    <dc:type rdf:resource="http://purl.org/dc/dcmitype/StillImage"/>
    <dc:date>2022-06-06T00:44:19.202732</dc:date>
    <dc:format>image/svg+xml</dc:format>
    <dc:creator>
     <cc:Agent>
      <dc:title>Matplotlib v3.4.0, https://matplotlib.org/</dc:title>
     </cc:Agent>
    </dc:creator>
   </cc:Work>
  </rdf:RDF>
 </metadata>
 <defs>
  <style type="text/css">*{stroke-linecap:butt;stroke-linejoin:round;}</style>
 </defs>
 <g id="figure_1">
  <g id="patch_1">
   <path d="M 0 247.68 
L 735.84 247.68 
L 735.84 0 
L 0 0 
z
" style="fill:#ffffff;"/>
  </g>
  <g id="patch_2">
   <path d="M 66.970661 212.297143 
L 256.268946 212.297143 
L 256.268946 22.998857 
L 66.970661 22.998857 
z
" style="fill:#ffffff;"/>
  </g>
  <g id="axes_1">
   <g id="line2d_1">
    <path clip-path="url(#pc206250b8e)" d="M 116.143325 179.162846 
L 115.550467 121.200663 
" style="fill:none;stroke:#b2b2b2;stroke-dasharray:5.55,2.4;stroke-dashoffset:0;stroke-width:1.5;"/>
   </g>
   <g id="line2d_2">
    <path clip-path="url(#pc206250b8e)" d="M 233.190054 187.247438 
L 234.066379 127.717074 
" style="fill:none;stroke:#b2b2b2;stroke-dasharray:5.55,2.4;stroke-dashoffset:0;stroke-width:1.5;"/>
   </g>
   <g id="line2d_3">
    <path clip-path="url(#pc206250b8e)" d="M 147.000067 151.01457 
L 146.809298 98.54803 
" style="fill:none;stroke:#b2b2b2;stroke-dasharray:5.55,2.4;stroke-dashoffset:0;stroke-width:1.5;"/>
   </g>
   <g id="line2d_4">
    <path clip-path="url(#pc206250b8e)" d="M 173.845446 183.148418 
L 174.028113 94.489752 
" style="fill:none;stroke:#b2b2b2;stroke-dasharray:5.55,2.4;stroke-dashoffset:0;stroke-width:1.5;"/>
   </g>
   <g id="line2d_5">
    <path clip-path="url(#pc206250b8e)" d="M 132.376085 164.354925 
L 131.815098 81.252131 
" style="fill:none;stroke:#b2b2b2;stroke-dasharray:5.55,2.4;stroke-dashoffset:0;stroke-width:1.5;"/>
   </g>
   <g id="line2d_6">
    <path clip-path="url(#pc206250b8e)" d="M 187.245561 167.933121 
L 187.657982 83.770001 
" style="fill:none;stroke:#b2b2b2;stroke-dasharray:5.55,2.4;stroke-dashoffset:0;stroke-width:1.5;"/>
   </g>
   <g id="line2d_7">
    <path clip-path="url(#pc206250b8e)" d="M 115.550467 121.200663 
L 234.066379 127.717074 
L 146.809298 98.54803 
L 115.550467 121.200663 
" style="fill:none;stroke:#b2b2b2;stroke-width:1.5;"/>
   </g>
   <g id="line2d_8">
    <defs>
     <path d="M 0 3 
C 0.795609 3 1.55874 2.683901 2.12132 2.12132 
C 2.683901 1.55874 3 0.795609 3 0 
C 3 -0.795609 2.683901 -1.55874 2.12132 -2.12132 
C 1.55874 -2.683901 0.795609 -3 0 -3 
C -0.795609 -3 -1.55874 -2.683901 -2.12132 -2.12132 
C -2.683901 -1.55874 -3 -0.795609 -3 0 
C -3 0.795609 -2.683901 1.55874 -2.12132 2.12132 
C -1.55874 2.683901 -0.795609 3 0 3 
z
" id="mffda6865ef" style="stroke:#b2b2b2;"/>
    </defs>
    <g clip-path="url(#pc206250b8e)">
     <use style="fill:#b2b2b2;stroke:#b2b2b2;" x="115.550467" xlink:href="#mffda6865ef" y="121.200663"/>
    </g>
   </g>
   <g id="line2d_9">
    <g clip-path="url(#pc206250b8e)">
     <use style="fill:#b2b2b2;stroke:#b2b2b2;" x="234.066379" xlink:href="#mffda6865ef" y="127.717074"/>
    </g>
   </g>
   <g id="line2d_10">
    <g clip-path="url(#pc206250b8e)">
     <use style="fill:#b2b2b2;stroke:#b2b2b2;" x="146.809298" xlink:href="#mffda6865ef" y="98.54803"/>
    </g>
   </g>
   <g id="line2d_11">
    <path clip-path="url(#pc206250b8e)" d="M 187.657982 83.770001 
L 131.815098 81.252131 
L 146.809298 98.54803 
L 187.657982 83.770001 
" style="fill:none;stroke:#b2b2b2;stroke-width:1.5;"/>
   </g>
   <g id="line2d_12">
    <g clip-path="url(#pc206250b8e)">
     <use style="fill:#b2b2b2;stroke:#b2b2b2;" x="187.657982" xlink:href="#mffda6865ef" y="83.770001"/>
    </g>
   </g>
   <g id="line2d_13">
    <g clip-path="url(#pc206250b8e)">
     <use style="fill:#b2b2b2;stroke:#b2b2b2;" x="131.815098" xlink:href="#mffda6865ef" y="81.252131"/>
    </g>
   </g>
   <g id="line2d_14">
    <g clip-path="url(#pc206250b8e)">
     <use style="fill:#b2b2b2;stroke:#b2b2b2;" x="146.809298" xlink:href="#mffda6865ef" y="98.54803"/>
    </g>
   </g>
   <g id="line2d_15">
    <path clip-path="url(#pc206250b8e)" d="M 174.028113 94.489752 
L 131.815098 81.252131 
L 187.657982 83.770001 
L 174.028113 94.489752 
" style="fill:none;stroke:#000000;stroke-width:1.5;"/>
   </g>
   <g id="line2d_16">
    <defs>
     <path d="M 0 3 
C 0.795609 3 1.55874 2.683901 2.12132 2.12132 
C 2.683901 1.55874 3 0.795609 3 0 
C 3 -0.795609 2.683901 -1.55874 2.12132 -2.12132 
C 1.55874 -2.683901 0.795609 -3 0 -3 
C -0.795609 -3 -1.55874 -2.683901 -2.12132 -2.12132 
C -2.683901 -1.55874 -3 -0.795609 -3 0 
C -3 0.795609 -2.683901 1.55874 -2.12132 2.12132 
C -1.55874 2.683901 -0.795609 3 0 3 
z
" id="mbc331641fb" style="stroke:#000000;"/>
    </defs>
    <g clip-path="url(#pc206250b8e)">
     <use style="stroke:#000000;" x="174.028113" xlink:href="#mbc331641fb" y="94.489752"/>
    </g>
   </g>
   <g id="line2d_17">
    <g clip-path="url(#pc206250b8e)">
     <use style="stroke:#000000;" x="131.815098" xlink:href="#mbc331641fb" y="81.252131"/>
    </g>
   </g>
   <g id="line2d_18">
    <g clip-path="url(#pc206250b8e)">
     <use style="stroke:#000000;" x="187.657982" xlink:href="#mbc331641fb" y="83.770001"/>
    </g>
   </g>
   <g id="line2d_19">
    <path clip-path="url(#pc206250b8e)" d="M 187.657982 83.770001 
L 234.066379 127.717074 
L 174.028113 94.489752 
L 187.657982 83.770001 
" style="fill:none;stroke:#000000;stroke-width:1.5;"/>
   </g>
   <g id="line2d_20">
    <g clip-path="url(#pc206250b8e)">
     <use style="stroke:#000000;" x="187.657982" xlink:href="#mbc331641fb" y="83.770001"/>
    </g>
   </g>
   <g id="line2d_21">
    <g clip-path="url(#pc206250b8e)">
     <use style="stroke:#000000;" x="234.066379" xlink:href="#mbc331641fb" y="127.717074"/>
    </g>
   </g>
   <g id="line2d_22">
    <g clip-path="url(#pc206250b8e)">
     <use style="stroke:#000000;" x="174.028113" xlink:href="#mbc331641fb" y="94.489752"/>
    </g>
   </g>
   <g id="line2d_23">
    <path clip-path="url(#pc206250b8e)" d="M 115.550467 121.200663 
L 174.028113 94.489752 
L 131.815098 81.252131 
L 115.550467 121.200663 
" style="fill:none;stroke:#000000;stroke-width:1.5;"/>
   </g>
   <g id="line2d_24">
    <g clip-path="url(#pc206250b8e)">
     <use style="stroke:#000000;" x="115.550467" xlink:href="#mbc331641fb" y="121.200663"/>
    </g>
   </g>
   <g id="line2d_25">
    <g clip-path="url(#pc206250b8e)">
     <use style="stroke:#000000;" x="174.028113" xlink:href="#mbc331641fb" y="94.489752"/>
    </g>
   </g>
   <g id="line2d_26">
    <g clip-path="url(#pc206250b8e)">
     <use style="stroke:#000000;" x="131.815098" xlink:href="#mbc331641fb" y="81.252131"/>
    </g>
   </g>
   <g id="line2d_27">
    <path clip-path="url(#pc206250b8e)" d="M 115.550467 121.200663 
L 234.066379 127.717074 
L 115.550467 121.200663 
" style="fill:none;stroke:#000000;stroke-width:1.5;"/>
   </g>
   <g id="line2d_28">
    <g clip-path="url(#pc206250b8e)">
     <use style="stroke:#000000;" x="115.550467" xlink:href="#mbc331641fb" y="121.200663"/>
    </g>
   </g>
   <g id="line2d_29">
    <g clip-path="url(#pc206250b8e)">
     <use style="stroke:#000000;" x="234.066379" xlink:href="#mbc331641fb" y="127.717074"/>
    </g>
   </g>
   <g id="line2d_30">
    <path clip-path="url(#pc206250b8e)" d="M 116.143325 179.162846 
L 233.190054 187.247438 
L 147.000067 151.01457 
L 116.143325 179.162846 
" style="fill:none;stroke:#b2b2b2;stroke-width:1.5;"/>
   </g>
   <g id="line2d_31">
    <g clip-path="url(#pc206250b8e)">
     <use style="fill:#b2b2b2;stroke:#b2b2b2;" x="116.143325" xlink:href="#mffda6865ef" y="179.162846"/>
    </g>
   </g>
   <g id="line2d_32">
    <g clip-path="url(#pc206250b8e)">
     <use style="fill:#b2b2b2;stroke:#b2b2b2;" x="233.190054" xlink:href="#mffda6865ef" y="187.247438"/>
    </g>
   </g>
   <g id="line2d_33">
    <g clip-path="url(#pc206250b8e)">
     <use style="fill:#b2b2b2;stroke:#b2b2b2;" x="147.000067" xlink:href="#mffda6865ef" y="151.01457"/>
    </g>
   </g>
   <g id="line2d_34">
    <path clip-path="url(#pc206250b8e)" d="M 173.845446 183.148418 
L 132.376085 164.354925 
L 187.245561 167.933121 
L 173.845446 183.148418 
" style="fill:none;stroke:#b2b2b2;stroke-width:1.5;"/>
   </g>
   <g id="line2d_35">
    <g clip-path="url(#pc206250b8e)">
     <use style="fill:#b2b2b2;stroke:#b2b2b2;" x="173.845446" xlink:href="#mffda6865ef" y="183.148418"/>
    </g>
   </g>
   <g id="line2d_36">
    <g clip-path="url(#pc206250b8e)">
     <use style="fill:#b2b2b2;stroke:#b2b2b2;" x="132.376085" xlink:href="#mffda6865ef" y="164.354925"/>
    </g>
   </g>
   <g id="line2d_37">
    <g clip-path="url(#pc206250b8e)">
     <use style="fill:#b2b2b2;stroke:#b2b2b2;" x="187.245561" xlink:href="#mffda6865ef" y="167.933121"/>
    </g>
   </g>
   <g id="text_1">
    <!-- $P_f$ -->
    <g transform="translate(156.339803 16.998857)scale(0.12 -0.12)">
     <defs>
      <path d="M 1081 4666 
L 2541 4666 
Q 3178 4666 3512 4369 
Q 3847 4072 3847 3500 
Q 3847 2731 3353 2303 
Q 2859 1875 1966 1875 
L 1172 1875 
L 806 0 
L 172 0 
L 1081 4666 
z
M 1613 4147 
L 1275 2394 
L 2069 2394 
Q 2606 2394 2893 2669 
Q 3181 2944 3181 3456 
Q 3181 3784 2986 3965 
Q 2791 4147 2438 4147 
L 1613 4147 
z
" id="DejaVuSans-Oblique-50" transform="scale(0.015625)"/>
      <path d="M 3059 4863 
L 2969 4384 
L 2419 4384 
Q 2106 4384 1964 4261 
Q 1822 4138 1753 3809 
L 1691 3500 
L 2638 3500 
L 2553 3053 
L 1606 3053 
L 1013 0 
L 434 0 
L 1031 3053 
L 481 3053 
L 563 3500 
L 1113 3500 
L 1159 3744 
Q 1278 4363 1576 4613 
Q 1875 4863 2516 4863 
L 3059 4863 
z
" id="DejaVuSans-Oblique-66" transform="scale(0.015625)"/>
     </defs>
     <use transform="translate(0 0.09375)" xlink:href="#DejaVuSans-Oblique-50"/>
     <use transform="translate(60.302734 -16.3125)scale(0.7)" xlink:href="#DejaVuSans-Oblique-66"/>
    </g>
   </g>
  </g>
  <g id="axes_2">
   <g id="line2d_38">
    <path clip-path="url(#p10235de0c2)" d="M 439.029897 207.566419 
L 618.306496 207.566419 
L 439.029897 27.729581 
L 439.029897 207.566419 
" style="fill:none;stroke:#000000;stroke-width:1.5;"/>
   </g>
   <g id="line2d_39">
    <g clip-path="url(#p10235de0c2)">
     <use style="stroke:#000000;" x="439.029897" xlink:href="#mbc331641fb" y="207.566419"/>
    </g>
   </g>
   <g id="line2d_40">
    <g clip-path="url(#p10235de0c2)">
     <use style="stroke:#000000;" x="618.306496" xlink:href="#mbc331641fb" y="207.566419"/>
    </g>
   </g>
   <g id="line2d_41">
    <g clip-path="url(#p10235de0c2)">
     <use style="stroke:#000000;" x="439.029897" xlink:href="#mbc331641fb" y="27.729581"/>
    </g>
   </g>
   <g id="line2d_42">
    <path clip-path="url(#p10235de0c2)" d="M 528.668197 207.566419 
L 439.029897 117.648 
L 528.668197 117.648 
L 528.668197 207.566419 
" style="fill:none;stroke:#000000;stroke-width:1.5;"/>
   </g>
   <g id="line2d_43">
    <g clip-path="url(#p10235de0c2)">
     <use style="stroke:#000000;" x="528.668197" xlink:href="#mbc331641fb" y="207.566419"/>
    </g>
   </g>
   <g id="line2d_44">
    <g clip-path="url(#p10235de0c2)">
     <use style="stroke:#000000;" x="439.029897" xlink:href="#mbc331641fb" y="117.648"/>
    </g>
   </g>
   <g id="line2d_45">
    <g clip-path="url(#p10235de0c2)">
     <use style="stroke:#000000;" x="528.668197" xlink:href="#mbc331641fb" y="117.648"/>
    </g>
   </g>
   <g id="text_2">
    <!-- Newt$(f)$ -->
    <g transform="translate(506.408197 16.998857)scale(0.12 -0.12)">
     <defs>
      <path d="M 628 4666 
L 1478 4666 
L 3547 763 
L 3547 4666 
L 4159 4666 
L 4159 0 
L 3309 0 
L 1241 3903 
L 1241 0 
L 628 0 
L 628 4666 
z
" id="DejaVuSans-4e" transform="scale(0.015625)"/>
      <path d="M 3597 1894 
L 3597 1613 
L 953 1613 
Q 991 1019 1311 708 
Q 1631 397 2203 397 
Q 2534 397 2845 478 
Q 3156 559 3463 722 
L 3463 178 
Q 3153 47 2828 -22 
Q 2503 -91 2169 -91 
Q 1331 -91 842 396 
Q 353 884 353 1716 
Q 353 2575 817 3079 
Q 1281 3584 2069 3584 
Q 2775 3584 3186 3129 
Q 3597 2675 3597 1894 
z
M 3022 2063 
Q 3016 2534 2758 2815 
Q 2500 3097 2075 3097 
Q 1594 3097 1305 2825 
Q 1016 2553 972 2059 
L 3022 2063 
z
" id="DejaVuSans-65" transform="scale(0.015625)"/>
      <path d="M 269 3500 
L 844 3500 
L 1563 769 
L 2278 3500 
L 2956 3500 
L 3675 769 
L 4391 3500 
L 4966 3500 
L 4050 0 
L 3372 0 
L 2619 2869 
L 1863 0 
L 1184 0 
L 269 3500 
z
" id="DejaVuSans-77" transform="scale(0.015625)"/>
      <path d="M 1172 4494 
L 1172 3500 
L 2356 3500 
L 2356 3053 
L 1172 3053 
L 1172 1153 
Q 1172 725 1289 603 
Q 1406 481 1766 481 
L 2356 481 
L 2356 0 
L 1766 0 
Q 1100 0 847 248 
Q 594 497 594 1153 
L 594 3053 
L 172 3053 
L 172 3500 
L 594 3500 
L 594 4494 
L 1172 4494 
z
" id="DejaVuSans-74" transform="scale(0.015625)"/>
      <path d="M 1984 4856 
Q 1566 4138 1362 3434 
Q 1159 2731 1159 2009 
Q 1159 1288 1364 580 
Q 1569 -128 1984 -844 
L 1484 -844 
Q 1016 -109 783 600 
Q 550 1309 550 2009 
Q 550 2706 781 3412 
Q 1013 4119 1484 4856 
L 1984 4856 
z
" id="DejaVuSans-28" transform="scale(0.015625)"/>
      <path d="M 513 4856 
L 1013 4856 
Q 1481 4119 1714 3412 
Q 1947 2706 1947 2009 
Q 1947 1309 1714 600 
Q 1481 -109 1013 -844 
L 513 -844 
Q 928 -128 1133 580 
Q 1338 1288 1338 2009 
Q 1338 2731 1133 3434 
Q 928 4138 513 4856 
z
" id="DejaVuSans-29" transform="scale(0.015625)"/>
     </defs>
     <use transform="translate(0 0.015625)" xlink:href="#DejaVuSans-4e"/>
     <use transform="translate(74.804688 0.015625)" xlink:href="#DejaVuSans-65"/>
     <use transform="translate(136.328125 0.015625)" xlink:href="#DejaVuSans-77"/>
     <use transform="translate(218.115234 0.015625)" xlink:href="#DejaVuSans-74"/>
     <use transform="translate(257.324219 0.015625)" xlink:href="#DejaVuSans-28"/>
     <use transform="translate(296.337891 0.015625)" xlink:href="#DejaVuSans-Oblique-66"/>
     <use transform="translate(331.542969 0.015625)" xlink:href="#DejaVuSans-29"/>
    </g>
   </g>
  </g>
 </g>
 <defs>
  <clipPath id="pc206250b8e">
   <rect height="189.298286" width="189.298286" x="66.970661" y="22.998857"/>
  </clipPath>
  <clipPath id="p10235de0c2">
   <rect height="189.298286" width="267.175607" x="395.080393" y="22.998857"/>
  </clipPath>
 </defs>
</svg>
